<?xml version="1.0" encoding="UTF-8"?>
<svg version="1.1" xmlns="http://www.w3.org/2000/svg" width="278" height="282">
<path d="M0 0 C91.74 0 183.48 0 278 0 C278 93.06 278 186.12 278 282 C186.26 282 94.52 282 0 282 C0 188.94 0 95.88 0 0 Z " fill="#F8FBFE" transform="translate(0,0)"/>
<path d="M0 0 C1.21189499 -0.00554901 2.42378998 -0.01109802 3.67240906 -0.01681519 C6.98903489 -0.0265929 10.30409834 -0.01402681 13.62055779 0.00946999 C17.09489473 0.02960797 20.56919813 0.02369791 24.0435791 0.0213623 C29.87766191 0.02141585 35.71142052 0.04115355 41.54541016 0.07324219 C48.28528902 0.11013385 55.0247433 0.11891746 61.76470995 0.11194468 C68.25475312 0.10563404 74.74465106 0.11640428 81.23466492 0.13591003 C83.99372938 0.14407354 86.75271952 0.14679553 89.51179504 0.1452179 C93.3660937 0.14417378 97.22000933 0.16837667 101.07421875 0.1953125 C102.21722946 0.1923819 103.36024017 0.18945129 104.53788757 0.18643188 C106.11501274 0.20345657 106.11501274 0.20345657 107.72399902 0.2208252 C108.63468895 0.22455391 109.54537888 0.22828262 110.48366547 0.23212433 C113.88465153 0.74239672 116.59076586 2.16889086 119.03710938 4.61523438 C119.42695341 8.98965568 119.52284575 13.36930169 119.60693359 17.75830078 C119.64328888 19.22892043 119.69755084 20.69922266 119.77099609 22.16845703 C120.14634999 29.79834669 120.24471773 36.12648901 115.24414062 42.39257812 C113.54583355 44.16993854 111.8073715 45.90952954 110.03710938 47.61523438 C109.07773834 48.61047747 108.12310653 49.61030707 107.17285156 50.61425781 C104.70186578 53.20794054 102.18491272 55.74932544 99.64135742 58.27172852 C98.06962625 59.83250859 96.5091642 61.40401143 94.94921875 62.9765625 C93.94921016 63.97525309 92.9485833 64.97332507 91.94726562 65.97070312 C91.05144775 66.86426514 90.15562988 67.75782715 89.23266602 68.6784668 C87.03710938 70.61523438 87.03710938 70.61523438 85.03710938 70.61523438 C84.54210937 72.10023438 84.54210937 72.10023438 84.03710938 73.61523438 C83.37710938 73.61523438 82.71710938 73.61523438 82.03710938 73.61523438 C81.832229 74.14681152 81.62734863 74.67838867 81.41625977 75.22607422 C79.46258413 78.6105086 76.74417428 81.13300738 73.97070312 83.84179688 C73.37661148 84.43068695 72.78251984 85.01957703 72.17042542 85.62631226 C70.27651664 87.50244245 68.37604506 89.37173543 66.47460938 91.24023438 C64.57049495 93.11673902 62.66785499 94.99468014 60.76808167 96.87557983 C59.58668388 98.04471161 58.40262336 99.21115996 57.21568298 100.37466431 C53.12045583 104.20052287 53.12045583 104.20052287 51.92358398 109.41259766 C51.9288208 110.5751709 51.93405762 111.73774414 51.93945312 112.93554688 C51.94267578 114.19238281 51.94589844 115.44921875 51.94921875 116.74414062 C51.95759766 118.06285156 51.96597656 119.3815625 51.97460938 120.74023438 C51.97962448 122.08007649 51.98418737 123.41992038 51.98828125 124.75976562 C52.00009852 128.04496644 52.0165732 131.33007835 52.03710938 134.61523438 C56.16261806 134.78968665 60.28666933 134.91594325 64.41503906 134.99975586 C65.81581053 135.0347268 67.2163308 135.08232469 68.61621094 135.14331055 C77.94990695 135.78610171 77.94990695 135.78610171 86.10351562 131.99023438 C87.43918048 130.55427634 88.7459659 129.09135247 90.03710938 127.61523438 C91.68990768 125.94181537 93.3671303 124.29476884 95.04391479 122.645401 C98.21541942 119.51732422 101.34150748 116.34419672 104.47460938 113.17773438 C107.0121386 110.61370354 109.55291104 108.05295097 112.09570312 105.49414062 C112.67791122 104.90363419 113.26011932 104.31312775 113.85997009 103.70472717 C115.23357003 102.32264128 116.63270138 100.96600319 118.03710938 99.61523438 C118.36710938 99.61523438 118.69710937 99.61523438 119.03710938 99.61523438 C119.13850502 106.2353813 119.20857273 112.8553281 119.25683594 119.47607422 C119.27695494 121.72842899 119.30425345 123.98073151 119.33886719 126.23291016 C119.38737147 129.46985768 119.41007542 132.70611484 119.42773438 135.94335938 C119.44837952 136.95078186 119.46902466 137.95820435 119.49029541 138.99615479 C119.49059753 139.936828 119.49089966 140.87750122 119.49121094 141.84667969 C119.50009338 142.67274719 119.50897583 143.4988147 119.51812744 144.34991455 C118.8499072 147.49684949 117.50207916 148.59083194 115.03710938 150.61523438 C112.55706787 151.12139225 112.55706787 151.12139225 109.72363281 151.12989807 C108.10853821 151.14898476 108.10853821 151.14898476 106.46081543 151.16845703 C105.28458618 151.16193115 104.10835693 151.15540527 102.89648438 151.14868164 C101.65386841 151.15729721 100.41125244 151.16591278 99.13098145 151.17478943 C95.72576786 151.19360465 92.32152696 151.19434377 88.91633606 151.18546796 C86.07326477 151.18035747 83.23028077 151.18765098 80.38721848 151.19494003 C73.68059406 151.21193969 66.97419717 151.20837222 60.26757812 151.19165039 C53.34864762 151.17472232 46.4303477 151.19057215 39.51148605 151.22287327 C33.5699433 151.24956081 27.62859695 151.25684772 21.68700027 151.24835819 C18.13880669 151.24342719 14.59099268 151.24565341 11.04284668 151.26614571 C7.08755753 151.28789622 3.13303005 151.26911351 -0.82226562 151.24633789 C-1.99849487 151.25803009 -3.17472412 151.26972229 -4.38659668 151.2817688 C-5.46332642 151.26911484 -6.54005615 151.25646088 -7.64941406 151.24342346 C-8.58444763 151.24283715 -9.5194812 151.24225084 -10.48284912 151.24164677 C-14.06337784 150.33727176 -15.08836304 148.73386967 -16.96289062 145.61523438 C-17.4690485 142.82752991 -17.4690485 142.82752991 -17.47755432 139.73266602 C-17.49027878 138.55503693 -17.50300323 137.37740784 -17.51611328 136.16409302 C-17.5095874 134.88082123 -17.50306152 133.59754944 -17.49633789 132.27539062 C-17.50339902 130.90346347 -17.51214487 129.53154411 -17.52244568 128.15963745 C-17.54492672 124.44058023 -17.5420034 120.72194883 -17.53312421 117.00284958 C-17.5280107 113.89638034 -17.5353097 110.78999087 -17.54259628 107.68352985 C-17.55959076 100.35502957 -17.5560336 93.02673754 -17.53930664 85.69824219 C-17.52237896 78.14028854 -17.53822929 70.58291217 -17.57052952 63.02502155 C-17.5972253 56.53228389 -17.60450171 50.03972593 -17.59601444 43.5469389 C-17.59108592 39.67065808 -17.59329654 35.79472473 -17.61380196 31.91848755 C-17.63215975 28.27386925 -17.62620062 24.63008163 -17.60160255 20.98550797 C-17.59420915 19.01245594 -17.61144871 17.03935971 -17.62942505 15.06637573 C-17.57674825 10.16405862 -17.53406586 6.66570067 -15.17112732 2.31994629 C-10.1960019 -0.3236104 -5.55255186 -0.06443059 0 0 Z " fill="#1ACFC7" transform="translate(82.962890625,69.384765625)"/>
<path d="M0 0 C2.23809875 1.0384839 3.77525945 2.021002 5.53173828 3.75073242 C6.05509766 4.24057617 6.57845703 4.73041992 7.11767578 5.23510742 C8.15673828 7.00073242 8.15673828 7.00073242 8.04234314 9.26104736 C6.87031191 12.88681389 4.69049456 15.00419251 2.02612305 17.60131836 C1.49274323 18.13688858 0.9593634 18.6724588 0.40982056 19.22425842 C-1.35127215 20.98765802 -3.1262114 22.7363709 -4.90185547 24.48510742 C-6.12954869 25.70787639 -7.35643099 26.93146004 -8.58253479 28.15582275 C-11.15150528 30.71715774 -13.72679344 33.27189563 -16.30737305 35.8215332 C-19.61935579 39.09387894 -22.92042049 42.37696121 -26.21748257 45.66433334 C-29.35874965 48.79563995 -32.50496135 51.92195741 -35.65185547 55.04760742 C-36.25401823 55.64637444 -36.85618099 56.24514145 -37.47659111 56.86205292 C-39.17611383 58.55002865 -40.87906263 60.23446202 -42.58325195 61.91772461 C-43.08878098 62.42056473 -43.59431 62.92340485 -44.11515808 63.44148254 C-47.55748522 66.83073531 -48.84138793 67.93712139 -53.78076172 68.25073242 C-56.29713675 68.20049626 -57.60002842 68.12995011 -59.84326172 66.93823242 C-61.54580992 63.63954529 -61.44529955 61.67316321 -60.84326172 58.00073242 C-56.74333594 52.20086406 -51.22815534 47.40616511 -46.01513672 42.62963867 C-39.82801965 36.88582483 -33.81508618 31.00987363 -27.92138672 24.96557617 C-26.82812073 23.84972641 -26.82812073 23.84972641 -25.71276855 22.71133423 C-22.73731084 19.67358245 -19.76412523 16.63416353 -16.81298828 13.57275391 C-14.6126237 11.29420977 -12.39403596 9.03485794 -10.17138672 6.77807617 C-9.50681458 6.07939926 -8.84224243 5.38072235 -8.15753174 4.66087341 C-3.52483023 0.00090799 -3.52483023 0.00090799 0 0 Z " fill="#19CEC5" transform="translate(208.84326171875,122.999267578125)"/>
<path d="M0 0 C7.80575195 -0.02312792 15.61149595 -0.04091738 23.41727352 -0.05181217 C27.0414596 -0.05704002 30.6656223 -0.06413587 34.28979492 -0.07543945 C37.78459975 -0.08627184 41.27938204 -0.09227758 44.77420235 -0.09487724 C46.76239389 -0.09763551 48.75057631 -0.10544688 50.73875427 -0.11329651 C51.93992386 -0.11337204 53.14109344 -0.11344757 54.37866211 -0.11352539 C55.97417152 -0.11685631 55.97417152 -0.11685631 57.60191345 -0.12025452 C60 0 60 0 61 1 C61.12514928 2.97619447 61.1757276 4.95738173 61.1875 6.9375 C61.20167969 8.01902344 61.21585938 9.10054687 61.23046875 10.21484375 C61 13 61 13 59 15 C56.5643158 15.24723816 56.5643158 15.24723816 53.46459961 15.24291992 C52.30677475 15.24599655 51.14894989 15.24907318 49.95603943 15.25224304 C48.70081985 15.24505753 47.44560028 15.23787201 46.15234375 15.23046875 C44.87017471 15.23001053 43.58800568 15.22955231 42.26698303 15.2290802 C39.55252676 15.22751538 36.83820239 15.21922513 34.1237793 15.20581055 C30.6375801 15.1888037 27.1515257 15.18499668 23.66528988 15.18575573 C20.34845496 15.1854191 17.03166794 15.17658537 13.71484375 15.16796875 C11.82897804 15.16629951 11.82897804 15.16629951 9.90501404 15.16459656 C8.75034134 15.15821671 7.59566864 15.15183685 6.40600586 15.14526367 C4.87283974 15.13954597 4.87283974 15.13954597 3.30870056 15.13371277 C1 15 1 15 0 14 C-0.07271741 11.64686445 -0.08370868 9.29166332 -0.0625 6.9375 C-0.05347656 5.64714844 -0.04445313 4.35679688 -0.03515625 3.02734375 C-0.02355469 2.02832031 -0.01195313 1.02929688 0 0 Z " fill="#F6FBFE" transform="translate(97,116)"/>
<path d="M0 0 C0.73541016 0.00202423 1.47082031 0.00404846 2.22851562 0.00613403 C2.97939453 0.00517731 3.73027344 0.00422058 4.50390625 0.00323486 C6.09440189 0.00255315 7.6849003 0.00440682 9.27539062 0.00857544 C11.71816217 0.01392386 14.16074984 0.00863019 16.60351562 0.00222778 C18.1451827 0.00288857 19.68684966 0.00416973 21.22851562 0.00613403 C21.96392578 0.0041098 22.69933594 0.00208557 23.45703125 0 C28.61356402 0.02399493 28.61356402 0.02399493 29.72851562 1.13894653 C29.82744502 3.3037545 29.85822663 5.47188438 29.85351562 7.63894653 C29.85738281 9.41785278 29.85738281 9.41785278 29.86132812 11.23269653 C29.72851562 14.13894653 29.72851562 14.13894653 28.72851562 15.13894653 C26.13492241 15.22746182 23.56811871 15.25420598 20.97460938 15.23660278 C20.19916275 15.23518784 19.42371613 15.23377289 18.62477112 15.23231506 C16.13848068 15.22669999 13.65227902 15.214145 11.16601562 15.20144653 C9.4843763 15.19643347 7.80273556 15.19187023 6.12109375 15.18777466 C1.99019996 15.17672566 -2.14062713 15.15945098 -6.27148438 15.13894653 C-6.29833849 12.82650861 -6.31781279 10.51398383 -6.33398438 8.20144653 C-6.34558594 6.9136731 -6.3571875 5.62589966 -6.36914062 4.29910278 C-6.21100867 -0.81804736 -4.65116769 0.02164331 0 0 Z " fill="#F4FBFD" transform="translate(103.271484375,145.86105346679688)"/>
</svg>
