<?xml version="1.0" encoding="UTF-8"?>
<svg version="1.1" xmlns="http://www.w3.org/2000/svg" width="281" height="274">
<path d="M0 0 C92.73 0 185.46 0 281 0 C281 90.42 281 180.84 281 274 C188.27 274 95.54 274 0 274 C0 183.58 0 93.16 0 0 Z " fill="#F8FBFE" transform="translate(0,0)"/>
<path d="M0 0 C8.43430594 1.81037259 14.73830254 5.3794675 20.2109375 12.1015625 C26.27074663 21.73420708 25.81609872 34.08060996 25.8359375 45.05859375 C25.8459227 47.01781517 25.8459227 47.01781517 25.85610962 49.01661682 C25.86798038 51.76216952 25.87180084 54.50759734 25.87060547 57.25317383 C25.87040221 60.73371912 25.89775627 64.21344864 25.93214989 67.69380093 C25.96000587 71.06540727 25.9585735 74.43687436 25.9609375 77.80859375 C25.97530853 79.03815292 25.98967957 80.2677121 26.00448608 81.53453064 C25.94946154 92.1003692 24.24394176 102.99872881 17.265625 111.3515625 C7.06841621 120.87196539 -6.85335938 121.042266 -20 121.1875 C-20.69472412 121.20055176 -21.38944824 121.21360352 -22.10522461 121.22705078 C-25.80338296 121.23340735 -27.33835081 121.10776612 -30.5 119 C-30.8125 116 -30.8125 116 -30.5 113 C-28.11363895 110.61363895 -27.50521886 110.72712868 -24.24609375 110.62109375 C-23.39080078 110.58693359 -22.53550781 110.55277344 -21.65429688 110.51757812 C-20.75775391 110.49115234 -19.86121094 110.46472656 -18.9375 110.4375 C-4.44829339 110.50972644 -4.44829339 110.50972644 8.5 105 C14.2178708 98.19370201 15.81073721 90.87129881 15.80078125 82.19921875 C15.80720894 80.94550224 15.80720894 80.94550224 15.81376648 79.66645813 C15.81948888 77.90403139 15.82002551 76.14158105 15.81567383 74.37915039 C15.81252196 71.70612497 15.83597052 69.03421635 15.86132812 66.36132812 C15.8636024 64.64062638 15.86430402 62.91992169 15.86328125 61.19921875 C15.872491 60.41141525 15.88170074 59.62361176 15.89118958 58.81193542 C15.8350001 51.94914232 14.60346858 45.62933572 10.25 40.1875 C2.81237753 34.2712094 -3.35051065 32.88863569 -12.95092773 32.85473633 C-14.18588486 32.84835648 -15.42084198 32.84197662 -16.69322205 32.83540344 C-18.01004471 32.83429062 -19.32686737 32.8331778 -20.68359375 32.83203125 C-22.06689996 32.82881226 -23.45020583 32.82544772 -24.83351135 32.82194519 C-27.72405791 32.81597998 -30.61457468 32.81410267 -33.50512695 32.81469727 C-37.1911954 32.8147989 -40.8770713 32.80113371 -44.56309414 32.78392506 C-47.41743329 32.77275603 -50.27172653 32.77077953 -53.12608528 32.77130699 C-55.14001521 32.76956886 -57.15393082 32.75876314 -59.16783142 32.74775696 C-68.10990001 32.76997748 -77.28274052 33.01195746 -84.5 39 C-90.03550544 45.82283229 -90.6578778 52.19600875 -90.703125 60.703125 C-90.70882507 61.54035095 -90.71452515 62.3775769 -90.72039795 63.24017334 C-90.72982074 65.00857287 -90.73637109 66.77698974 -90.74023438 68.54541016 C-90.7499177 71.22720621 -90.78095738 73.90822798 -90.8125 76.58984375 C-90.81903339 78.31509966 -90.82428254 80.040361 -90.828125 81.765625 C-90.8404718 82.55656555 -90.8528186 83.3475061 -90.86553955 84.16241455 C-90.83832832 91.08959069 -89.48195385 97.77932642 -85.1875 103.375 C-76.86325472 111.50565818 -65.38790922 110.24345158 -54.50976562 110.51757812 C-53.51009766 110.55173828 -52.51042969 110.58589844 -51.48046875 110.62109375 C-50.11764771 110.65867798 -50.11764771 110.65867798 -48.72729492 110.69702148 C-46.5 111 -46.5 111 -44.5 113 C-44.75 116.5625 -44.75 116.5625 -45.5 120 C-47.81061624 121.15530812 -49.14903489 121.12901756 -51.71875 121.1328125 C-52.56397217 121.13506836 -53.40919434 121.13732422 -54.2800293 121.13964844 C-55.17761963 121.13481445 -56.07520996 121.12998047 -57 121.125 C-57.91112549 121.12016602 -58.82225098 121.11533203 -59.76098633 121.11035156 C-72.53352009 120.99601503 -82.83213094 120.27407175 -92.640625 111.19140625 C-100.55916801 101.8588377 -101.656583 91.89441185 -101.6328125 80.1875 C-101.63376923 79.14158691 -101.63472595 78.09567383 -101.63571167 77.01806641 C-101.63639095 74.80582621 -101.63455423 72.593584 -101.63037109 70.38134766 C-101.62506249 67.03934087 -101.63030226 63.69747114 -101.63671875 60.35546875 C-101.65159121 19.55553637 -101.65159121 19.55553637 -92.44921875 8.90625 C-83.05778705 -0.27815616 -72.11376237 -0.33067228 -59.5625 -0.25 C-58.33208984 -0.25773437 -57.10167969 -0.26546875 -55.83398438 -0.2734375 C-54.07731445 -0.26957031 -54.07731445 -0.26957031 -52.28515625 -0.265625 C-51.22176025 -0.26336914 -50.15836426 -0.26111328 -49.06274414 -0.25878906 C-46.5 0 -46.5 0 -44.5 2 C-44.25 4.5 -44.25 4.5 -44.5 7 C-47.15483401 9.65483401 -48.60939585 9.33925466 -52.3203125 9.52734375 C-53.4959375 9.59759766 -54.6715625 9.66785156 -55.8828125 9.74023438 C-58.35402771 9.87050198 -60.82538215 9.99815761 -63.296875 10.12304688 C-71.25185702 10.60398533 -77.72585249 11.23229183 -84.3125 16.0625 C-87.29088017 20.06203909 -88.35237444 24.19490111 -89.5 29 C-88.654375 28.401875 -87.80875 27.80375 -86.9375 27.1875 C-73.83604843 19.95944305 -57.12992133 21.56915125 -42.72949219 21.66381836 C-38.87674093 21.6874893 -35.02468105 21.68435179 -31.171875 21.67773438 C-28.68489177 21.68331057 -26.19791141 21.69042008 -23.7109375 21.69921875 C-22.57828461 21.69830734 -21.44563171 21.69739594 -20.27865601 21.69645691 C-7.85546883 21.80491958 3.3268263 23.41341315 14.5 29 C13.17741056 22.62637852 11.72397006 18.09088103 6.390625 14.11328125 C-2.04706101 9.14480911 -13.13719423 9.75658781 -22.64453125 9.39453125 C-23.51207031 9.35714844 -24.37960938 9.31976563 -25.2734375 9.28125 C-26.06153809 9.25095703 -26.84963867 9.22066406 -27.66162109 9.18945312 C-29.5 9 -29.5 9 -30.5 8 C-30.75 4.5625 -30.75 4.5625 -30.5 1 C-23.07947381 -3.94701746 -8.62528537 -1.42178498 0 0 Z " fill="#19CBC3" transform="translate(175.5,63)"/>
<path d="M0 0 C2.6875 0.5 2.6875 0.5 3.6875 1.5 C4.18711009 5.81242396 4.15955608 7.84000383 1.59765625 11.421875 C0.66453625 12.38052108 -0.28570748 13.32271624 -1.25 14.25 C-2.26041828 15.2813076 -3.26818297 16.31522095 -4.2734375 17.3515625 C-4.78229492 17.87008789 -5.29115234 18.38861328 -5.81542969 18.92285156 C-8.9353673 22.20967429 -11.70263086 25.7860584 -14.53515625 29.3203125 C-16.3125 31.5 -16.3125 31.5 -18.3125 33.5 C-22.05707347 33.64684602 -24.40742528 33.32918911 -27.22265625 30.75 C-28.98654989 28.71272157 -30.64757914 26.6182409 -32.3125 24.5 C-32.86808594 23.97277344 -33.42367187 23.44554687 -33.99609375 22.90234375 C-35.3125 21.5 -35.3125 21.5 -35.625 18.9375 C-35.3125 16.5 -35.3125 16.5 -33.3125 14.5 C-30.5 14 -30.5 14 -27.3125 14.5 C-25.31256222 16.32555629 -23.93055673 18.29764501 -22.3125 20.5 C-21.6525 20.83 -20.9925 21.16 -20.3125 21.5 C-20.07015625 20.93925781 -19.8278125 20.37851563 -19.578125 19.80078125 C-18.0589899 17.03914367 -16.20354743 14.99968558 -14.0625 12.6875 C-11.26645397 9.66777028 -8.62996535 6.63743498 -6.125 3.375 C-3.92006704 0.75125296 -3.60970968 0.54486184 0 0 Z " fill="#19CBC3" transform="translate(153.3125,117.5)"/>
</svg>
