<?xml version="1.0" encoding="UTF-8"?>
<svg version="1.1" xmlns="http://www.w3.org/2000/svg" width="233" height="227">
<path d="M0 0 C76.89 0 153.78 0 233 0 C233 74.91 233 149.82 233 227 C156.11 227 79.22 227 0 227 C0 152.09 0 77.18 0 0 Z " fill="#F6FDFE" transform="translate(0,0)"/>
<path d="M0 0 C76.89 0 153.78 0 233 0 C233 74.91 233 149.82 233 227 C156.11 227 79.22 227 0 227 C0 152.09 0 77.18 0 0 Z M29 33 C28.67 33.33 28.34 33.66 28 34 C27.89222042 36.0514205 27.85586273 38.10660097 27.84609985 40.16082764 C27.8417176 40.81152261 27.83733535 41.46221758 27.8328203 42.13263059 C27.81938775 44.3289831 27.81324348 46.52529545 27.80712891 48.72167969 C27.79923136 50.2900511 27.79096263 51.85842069 27.78234863 53.42678833 C27.75608541 58.59179946 27.74081542 63.75681887 27.7265625 68.921875 C27.72120434 70.6976853 27.71582683 72.47349554 27.71043015 74.24930573 C27.68879394 81.63529634 27.67005668 89.02128473 27.65880775 96.40729904 C27.64256644 107.00291257 27.60939289 117.59815946 27.55240691 128.19363475 C27.51373337 135.63740828 27.49417806 143.08108366 27.48888719 150.52495503 C27.48522977 154.97365885 27.4731678 159.42197202 27.44078445 163.87056732 C27.41074955 168.05673396 27.40437534 172.24227268 27.41616821 176.42852402 C27.41638934 177.96482811 27.40805141 179.50116094 27.39051437 181.03736496 C27.36786067 183.1360802 27.37609594 185.23251124 27.39199829 187.33123779 C27.38868814 188.50522503 27.385378 189.67921227 27.38196754 190.88877487 C28.18459169 194.92924944 29.87644783 196.40927192 33 199 C35.85439022 200.42719511 38.27865651 200.13258388 41.47090149 200.14044189 C42.14286865 200.14341302 42.81483581 200.14638414 43.50716561 200.1494453 C45.76951935 200.15814976 48.03182028 200.15964201 50.29418945 200.16113281 C51.91196812 200.16575977 53.52974568 200.17078427 55.14752197 200.17617798 C59.55049098 200.18931626 63.95344474 200.19574978 68.35643029 200.20018864 C71.10598663 200.20311723 73.85553877 200.20722164 76.605093 200.21169281 C85.20413517 200.22537187 93.80316778 200.23503637 102.40222007 200.2388947 C112.335269 200.24337578 122.26818034 200.26092427 132.20118743 200.2898953 C139.87428137 200.31149956 147.54733656 200.32159832 155.22046059 200.32293582 C159.80541179 200.32398481 164.39023374 200.32991236 168.97515297 200.34775543 C173.28844089 200.36421431 177.60150208 200.36640229 181.91481018 200.35761642 C183.49786167 200.35684486 185.08092524 200.3612045 186.66394615 200.37107468 C188.82561749 200.38376211 190.98648198 200.37793555 193.14814758 200.36749268 C194.35770772 200.36895924 195.56726786 200.3704258 196.81348133 200.3719368 C201.23332688 199.85604363 203.6767852 198.32197807 206.78869057 195.21298122 C208.42451027 192.22444816 208.37759805 189.9941322 208.38095093 186.59230042 C208.39364014 184.61335785 208.39364014 184.61335785 208.40658569 182.59443665 C208.40075285 181.13400145 208.39460835 179.67356748 208.38818359 178.21313477 C208.39224906 176.6738752 208.39759081 175.13461855 208.40411377 173.59536743 C208.41779734 169.41557711 208.41248417 165.2360088 208.40297651 161.05621457 C208.39538393 156.68232196 208.40242454 152.30844841 208.40713501 147.93455505 C208.41259431 140.58808987 208.40539699 133.24171513 208.39111328 125.89526367 C208.37479248 117.40304928 208.38007039 108.91105103 208.3965925 100.4188419 C208.41020965 93.12785415 208.41212572 85.83693145 208.40427649 78.54593509 C208.39960045 74.19130374 208.3989731 69.83677394 208.40888596 65.48214912 C208.41755647 61.38712711 208.41153226 57.29238347 208.39420319 53.19739151 C208.39023852 51.69497706 208.39137207 50.19253915 208.39799118 48.69013405 C208.40619813 46.63800155 208.39589668 44.58675913 208.38095093 42.53468323 C208.37981985 41.38671548 208.37868877 40.23874773 208.37752342 39.05599308 C207.8436228 34.73415103 206.25937541 32.27691524 203.23670864 29.21215057 C200.1380864 27.5328989 197.73065662 27.6163312 194.21266174 27.60559082 C193.53081863 27.59949972 192.84897551 27.59340861 192.14647049 27.58713293 C189.86253285 27.57048849 187.57915185 27.57528057 185.29516602 27.58007812 C183.65738342 27.57273863 182.01960601 27.56415274 180.38183594 27.55441284 C175.93348612 27.53217604 171.48532142 27.52926722 167.03692365 27.53116035 C163.32409705 27.53127995 159.61130984 27.52272032 155.89849418 27.51438284 C147.13990371 27.49514115 138.38140855 27.49226781 129.62280273 27.49902344 C120.58518283 27.50566593 111.54797088 27.48279332 102.51043373 27.44570971 C94.75235341 27.41503036 86.99440444 27.40365072 79.23626465 27.40754652 C74.6020876 27.40961577 69.96822801 27.40410781 65.33410835 27.37965393 C60.97632045 27.3574182 56.61919667 27.35923777 52.26140594 27.37958145 C50.66222813 27.38299711 49.06300587 27.37787841 47.46388817 27.36359787 C45.27992263 27.34544044 43.09821869 27.35812379 40.9143219 27.37854004 C39.08175512 27.37747128 39.08175512 27.37747128 37.21216679 27.37638092 C33.11537928 28.17174275 31.64857225 29.86245113 29 33 Z " fill="#1CCEC5" transform="translate(0,0)"/>
<path d="M0 0 C76.89 0 153.78 0 233 0 C233 74.91 233 149.82 233 227 C156.11 227 79.22 227 0 227 C0 152.09 0 77.18 0 0 Z M12.75 18.375 C7.90320427 25.64519359 5.87909572 31.75514983 5.86628723 40.54573059 C5.86402167 41.18955946 5.86175612 41.83338833 5.85942191 42.49672717 C5.85311077 44.64602991 5.85390941 46.79526912 5.85473633 48.94458008 C5.85174301 50.48896872 5.84834009 52.03335662 5.84455872 53.57774353 C5.83573155 57.76793762 5.83338113 61.95811128 5.83274293 66.14831376 C5.83203164 68.7680897 5.82989582 71.38786046 5.82724571 74.00763512 C5.81799619 83.15263574 5.81391029 92.2976218 5.81469727 101.44262695 C5.8152978 109.95804472 5.80474978 118.47339909 5.7889536 126.98880082 C5.7758635 134.30701584 5.77051399 141.62521017 5.77115268 148.9434368 C5.77140725 153.31099056 5.76857841 157.67848798 5.75797462 162.04603004 C5.74826902 166.15578115 5.7482313 170.26542233 5.75549126 174.37517738 C5.75653408 175.87956402 5.75419225 177.38395758 5.7481308 178.88833237 C5.70011584 191.63539821 6.64663393 202.61114181 15.75 212.25 C22.24393474 218.42834165 28.93748486 221.116905 37.86122131 221.14717102 C38.91416458 221.15268605 38.91416458 221.15268605 39.98837942 221.1583125 C42.34650836 221.16934758 44.70459324 221.17319292 47.06274414 221.17700195 C48.75137471 221.1832669 50.44000391 221.18991373 52.12863159 221.19691467 C57.68079671 221.21795941 63.2329621 221.22831964 68.78515625 221.23828125 C70.69768221 221.2423291 72.61020802 221.24644603 74.52273369 221.25063133 C83.51101957 221.26968644 92.49929723 221.28391499 101.48759943 221.2922433 C111.85416876 221.30200764 122.22052411 221.32830483 132.58701807 221.36874419 C140.60415546 221.39894226 148.62123167 221.41371581 156.63842481 221.41702431 C161.42421328 221.41937122 166.20977324 221.4282844 170.99550056 221.45348549 C175.50256255 221.47683485 180.00924672 221.48097195 184.51635361 221.47072411 C186.1650398 221.47023025 187.81374501 221.47650623 189.46237373 221.49028015 C202.73810446 221.59493311 211.95980735 219.8043277 221.86328125 210.3828125 C227.13438937 204.50461149 229.1196071 198.20026492 229.14717102 190.39779663 C229.15084771 189.72371376 229.1545244 189.04963088 229.1583125 188.35512125 C229.16934473 186.09139477 229.17319242 183.82771419 229.17700195 181.56396484 C229.18326707 179.94267633 229.18991391 178.32138926 229.19691467 176.70010376 C229.21795577 171.37039184 229.22831867 166.04067965 229.23828125 160.7109375 C229.24232911 158.87515879 229.24644604 157.03938024 229.25063133 155.20360184 C229.26968491 146.57679279 229.28391431 137.9499923 229.2922433 129.32316625 C229.30200987 119.37201666 229.3283135 109.42108986 229.36874419 99.47001874 C229.39893405 91.7747626 229.41371499 84.07957021 229.41702431 76.38425601 C229.41937198 71.79020278 229.42829512 67.1963875 229.45348549 62.60239792 C229.4768208 58.27672582 229.48097762 53.95144741 229.47072411 49.62572861 C229.47022992 48.0427367 229.47651566 46.45972505 229.49028015 44.87679291 C229.57603202 34.42584523 228.96516239 25.6714338 221.5625 17.6875 C221.00691406 17.07261719 220.45132813 16.45773438 219.87890625 15.82421875 C209.60322885 5.84762552 197.10100848 5.40465135 183.46044922 5.48242188 C181.84092585 5.47698832 180.22140743 5.4698588 178.60189819 5.46118164 C174.24243876 5.44309469 169.883362 5.44995385 165.52389669 5.46269798 C160.94065492 5.47289869 156.35744364 5.46341315 151.77420044 5.45715332 C144.08296893 5.44989882 136.39189163 5.45940819 128.70068359 5.47851562 C119.83174038 5.50029565 110.9631649 5.49321595 102.09423053 5.47121 C94.45136507 5.45301164 86.80860978 5.45051884 79.16572964 5.46096468 C74.6131603 5.4671733 70.0607634 5.4681079 65.50820541 5.45481873 C61.22829994 5.44319538 56.94886521 5.45140316 52.66901016 5.47439575 C51.10622181 5.47964777 49.54339326 5.47822978 47.98062134 5.46934509 C33.86538981 5.39654419 22.70495074 7.86699644 12.75 18.375 Z " fill="#F3FBFD" transform="translate(0,0)"/>
<path d="M0 0 C7.41364313 0.21091446 12.83539506 4.01657962 19.0625 7.75 C20.78826746 8.77193612 22.51403959 9.79386458 24.24023438 10.81507874 C25.41408321 11.51061314 26.58693161 12.20783868 27.75878906 12.90672302 C31.66769014 15.23366445 35.61629316 17.47405324 39.59765625 19.67578125 C40.61529053 20.24780273 41.6329248 20.81982422 42.68139648 21.40917969 C44.61054645 22.49271652 46.54868778 23.56043219 48.49633789 24.61035156 C54.77083499 28.1924185 54.77083499 28.1924185 55.89453125 32.15234375 C54.70868557 35.92737215 53.50751451 36.5805701 50.0625 38.5 C49.50763916 38.81767334 48.95277832 39.13534668 48.38110352 39.46264648 C47.06245335 40.21210998 45.73715374 40.94993418 44.40722656 41.67919922 C41.59021239 43.2248429 38.7913929 44.80124371 35.9921875 46.37890625 C30.70845006 49.35276341 25.4128882 52.30435942 20.10498047 55.23486328 C17.95478974 56.45721577 15.82984107 57.72465012 13.72705078 59.02685547 C12.67372559 59.6767041 11.62040039 60.32655273 10.53515625 60.99609375 C9.59164307 61.59478271 8.64812988 62.19347168 7.67602539 62.81030273 C4.56407756 64.19380075 3.18344891 64.07751278 0 63 C-1 62 -1 62 -1.09765625 58.18359375 C-1.09098089 56.60153318 -1.07901875 55.01948841 -1.0625 53.4375 C-1.05798828 52.63119141 -1.05347656 51.82488281 -1.04882812 50.99414062 C-1.03700518 48.99606244 -1.01906914 46.99802217 -1 45 C-1.63671127 45.00222061 -2.27342255 45.00444122 -2.9294281 45.00672913 C-9.53115276 45.0287804 -16.13286704 45.04390593 -22.73461914 45.05493164 C-25.20142033 45.05997356 -27.66821852 45.06680691 -30.13500977 45.07543945 C-33.67204529 45.08751125 -37.20904145 45.09322956 -40.74609375 45.09765625 C-41.85649521 45.10281754 -42.96689667 45.10797882 -44.11094666 45.11329651 C-45.64242088 45.11340981 -45.64242088 45.11340981 -47.20483398 45.11352539 C-48.56051735 45.11685631 -48.56051735 45.11685631 -49.94358826 45.12025452 C-52 45 -52 45 -53 44 C-53.09946453 42.23140807 -53.13080217 40.45888549 -53.1328125 38.6875 C-53.13410156 37.61242187 -53.13539062 36.53734375 -53.13671875 35.4296875 C-53.13091797 33.73199219 -53.13091797 33.73199219 -53.125 32 C-53.12886719 30.86820313 -53.13273437 29.73640625 -53.13671875 28.5703125 C-53.13542969 27.49523437 -53.13414063 26.42015625 -53.1328125 25.3125 C-53.13168457 24.31863281 -53.13055664 23.32476562 -53.12939453 22.30078125 C-53 20 -53 20 -52 19 C-50.40389018 18.90666295 -48.80366572 18.88254628 -47.20483398 18.88647461 C-46.18385117 18.88655014 -45.16286835 18.88662567 -44.11094666 18.88670349 C-43.0005452 18.89186478 -41.89014374 18.89702606 -40.74609375 18.90234375 C-39.05021873 18.90446617 -39.05021873 18.90446617 -37.32008362 18.90663147 C-33.69252935 18.91224981 -30.06503576 18.92480542 -26.4375 18.9375 C-23.98502693 18.94251264 -21.5325529 18.94707595 -19.08007812 18.95117188 C-13.05336455 18.9622252 -7.02668661 18.97898116 -1 19 C-1.01160156 17.79601562 -1.02320313 16.59203125 -1.03515625 15.3515625 C-1.04453434 13.77604321 -1.05363452 12.20052225 -1.0625 10.625 C-1.07087891 9.8309375 -1.07925781 9.036875 -1.08789062 8.21875 C-1.11328125 2.2265625 -1.11328125 2.2265625 0 0 Z " fill="#1BCEC6" transform="translate(115,103)"/>
<path d="M0 0 C1.4299379 -0.01073296 1.4299379 -0.01073296 2.88876343 -0.02168274 C3.9381308 -0.02437164 4.98749817 -0.02706055 6.06866455 -0.02983093 C7.17122589 -0.03640213 8.27378723 -0.04297333 9.40975952 -0.04974365 C13.07112693 -0.06951026 16.73245326 -0.0811468 20.39385986 -0.09111023 C21.64224892 -0.09518576 22.89063797 -0.09926128 24.17685699 -0.10346031 C30.10248089 -0.12218123 36.02809168 -0.13674354 41.95373797 -0.14507228 C48.78978539 -0.15483954 55.62550856 -0.18114438 62.46144176 -0.22157317 C68.38490442 -0.25540069 74.30828786 -0.26721974 80.23184967 -0.27127647 C82.75005542 -0.27615312 85.26825745 -0.28779755 87.78639984 -0.30631447 C91.31043906 -0.33061706 94.83362998 -0.32975659 98.35772705 -0.32279968 C99.3989975 -0.33560974 100.44026794 -0.3484198 101.51309204 -0.36161804 C107.4865257 -0.31861611 110.91467185 0.17567612 115.47198486 4.14717102 C118.06234834 7.56174106 117.90307227 10.97999273 117.47198486 15.14717102 C115.350386 19.16305458 113.69398653 21.48619421 109.47198486 23.14717102 C107.21617317 23.40443993 107.21617317 23.40443993 104.70346069 23.41459656 C103.74741943 23.42312653 102.79137817 23.43165649 101.80636597 23.44044495 C100.76418915 23.43953857 99.72201233 23.4386322 98.64825439 23.43769836 C97.545401 23.44441559 96.44254761 23.45113281 95.30627441 23.45805359 C91.6557364 23.47707193 88.00538185 23.48095972 84.35479736 23.48310852 C81.81897912 23.48953364 79.28316164 23.49626179 76.74734497 23.50328064 C71.42946352 23.51526293 66.11165055 23.51904607 60.79376221 23.51777649 C54.65430484 23.51657532 48.51519916 23.5376737 42.37583077 23.56926382 C36.46195831 23.59860525 30.54819291 23.60575159 24.63424301 23.60455704 C22.12162718 23.6069181 19.60900879 23.6157699 17.09643936 23.63122177 C13.58216394 23.65081043 10.06879431 23.64507086 6.55450439 23.63301086 C4.99731186 23.64986938 4.99731186 23.64986938 3.40866089 23.66706848 C-2.54586091 23.61512574 -6.00037395 23.13288553 -10.52801514 19.14717102 C-12.84826474 15.515476 -12.7869473 12.22080049 -12.14520264 8.08076477 C-11.1280271 4.89404396 -9.07507663 3.1972449 -6.52801514 1.14717102 C-4.14131887 -0.04617711 -2.66460038 0.01370227 0 0 Z " fill="#1AD0C7" transform="translate(65.52801513671875,50.85282897949219)"/>
<path d="M0 0 C0.33 0 0.66 0 1 0 C1.33 53.79 1.66 107.58 2 163 C2.99 162.01 2.99 162.01 4 161 C4.99 160.01 4.99 160.01 6 159 C6.33 159.99 6.66 160.98 7 162 C6.505 162.99 6.505 162.99 6 164 C8.82895217 165.41447608 11.19217115 165.12597781 14.35700989 165.12698364 C15.01672639 165.12854363 15.67644289 165.13010362 16.35615081 165.13171089 C18.57705589 165.13571428 20.79789318 165.13253375 23.01879883 165.12939453 C24.60702047 165.1307489 26.1952418 165.13252904 27.78346252 165.13470459 C32.10586381 165.13927575 36.4282413 165.13749036 40.75064301 165.1343255 C45.27001654 165.13179895 49.78938799 165.13414039 54.3087616 165.13571167 C61.90254076 165.13753306 69.4963102 165.13512844 77.09008789 165.13037109 C85.86962152 165.1249344 94.64913192 165.12668694 103.42866498 165.1321975 C110.96163183 165.13673651 118.49459168 165.13737513 126.02755946 165.13475883 C130.52862376 165.13319965 135.02967714 165.13299239 139.53074074 165.13629532 C143.76517638 165.13918524 147.9995821 165.13717766 152.23401451 165.13140106 C153.7880333 165.13007924 155.3420546 165.13045779 156.89607239 165.13266373 C159.01809526 165.13539805 161.1400224 165.1319661 163.26203918 165.12698364 C164.44947629 165.12660662 165.63691339 165.12622959 166.86033344 165.12584114 C169.69671293 165.01215606 172.2436637 164.65241583 175 164 C174.67 164.66 174.34 165.32 174 166 C170.59700435 167.13433188 167.99822741 167.13159954 164.40884399 167.14044189 C163.73602241 167.14341302 163.06320082 167.14638414 162.36999071 167.1494453 C160.11074299 167.15813146 157.85154826 167.15964046 155.59228516 167.16113281 C153.974359 167.165761 152.35643393 167.17078567 150.73851013 167.17617798 C146.33973243 167.18930289 141.94096999 167.19574698 137.54217577 167.20018864 C134.79479167 167.20311889 132.04741175 167.20722358 129.30002975 167.21169281 C120.70633038 167.22536726 112.11264054 167.23503448 103.51893103 167.2388947 C93.59438219 167.24337709 83.66997096 167.2609336 73.74546397 167.2898953 C66.07659612 167.3114989 58.40776703 167.32159826 50.73886907 167.32293582 C46.15728618 167.32398469 41.57583266 167.32991003 36.99428177 167.34775543 C32.68508441 167.36421356 28.37611399 167.36640267 24.06689644 167.35761642 C22.48545665 167.35684487 20.90400477 167.36120441 19.3225956 167.37107468 C17.16316702 167.38376211 15.00454612 167.3779356 12.84512329 167.36749268 C11.63686197 167.36895924 10.42860065 167.3704258 9.18372536 167.3719368 C5.65705303 166.95993543 3.813783 166.13165578 1 164 C-1.39353571 160.40969643 -1.24921467 158.83786349 -1.24723816 154.57174683 C-1.24965257 153.91652074 -1.25206699 153.26129465 -1.25455457 152.58621323 C-1.26019866 150.38663899 -1.25152335 148.18735425 -1.24291992 145.98779297 C-1.24399261 144.41263754 -1.24593109 142.83748251 -1.24867249 141.2623291 C-1.25352531 136.98154552 -1.24586029 132.70086597 -1.23571944 128.42009497 C-1.22694866 123.94690407 -1.22869618 119.47371654 -1.2290802 115.0005188 C-1.22814329 107.4900742 -1.21945462 99.97966998 -1.20581055 92.46923828 C-1.19007331 83.77423934 -1.18481282 75.07928461 -1.1855461 66.38427246 C-1.18615546 58.03190296 -1.18105918 49.67954793 -1.17275429 41.32718277 C-1.16921513 37.76658134 -1.16739014 34.20598503 -1.16686058 30.64538193 C-1.16585942 26.4577242 -1.1597815 22.27010389 -1.14969444 18.0824585 C-1.14676249 16.54127354 -1.14554547 15.00008428 -1.14612198 13.45889664 C-1.14660926 11.36398601 -1.14099089 9.26918176 -1.13371277 7.17428589 C-1.13203692 5.99920912 -1.13036108 4.82413235 -1.12863445 3.61344719 C-1 1 -1 1 0 0 Z " fill="#D8FEFE" transform="translate(29,33)"/>
<path d="M0 0 C1.10299942 -0.00686325 2.20599884 -0.0137265 3.34242249 -0.02079773 C6.98760866 -0.03909536 10.63236566 -0.03522383 14.27758789 -0.02954102 C16.81197754 -0.03410136 19.34636596 -0.03940649 21.88075256 -0.04542542 C27.19269413 -0.05436237 32.50447937 -0.0521605 37.81640625 -0.04199219 C43.94851814 -0.03051292 50.08019258 -0.04458522 56.21224684 -0.07138866 C62.12133311 -0.09624631 68.03028383 -0.09871873 73.93942451 -0.0922718 C76.44924205 -0.09211839 78.95906792 -0.0981792 81.4688549 -0.11056328 C84.97826557 -0.1254397 88.48671323 -0.1148195 91.99609375 -0.09765625 C93.03265106 -0.10732422 94.06920837 -0.11699219 95.13717651 -0.12695312 C101.09411342 -0.06594588 104.51497495 0.44956786 109.06274414 4.40405273 C111.65310762 7.81862277 111.49383155 11.23687444 111.06274414 15.40405273 C108.94216483 19.41800643 107.28578288 21.74789805 103.06274414 23.40405273 C100.79017258 23.65014839 100.79017258 23.65014839 98.25384521 23.64456177 C97.289133 23.6473111 96.32442078 23.65006042 95.33047485 23.65289307 C93.75307022 23.64210724 93.75307022 23.64210724 92.14379883 23.63110352 C91.03130768 23.63139557 89.91881653 23.63168762 88.77261353 23.63198853 C85.09320289 23.63059451 81.41399443 23.61502966 77.73461914 23.59936523 C75.18442902 23.59563537 72.63423747 23.59278827 70.08404541 23.59078979 C64.05634043 23.58393215 58.02872231 23.56816708 52.00105214 23.54809082 C45.13773866 23.525728 38.27442169 23.51473743 31.41108084 23.50469995 C17.2949284 23.48380072 3.17884025 23.44862712 -10.93725586 23.40405273 C-10.93725586 23.07405273 -10.93725586 22.74405273 -10.93725586 22.40405273 C26.35274414 22.40405273 63.64274414 22.40405273 102.06274414 22.40405273 C102.06274414 21.74405273 102.06274414 21.08405273 102.06274414 20.40405273 C103.71274414 20.07405273 105.36274414 19.74405273 107.06274414 19.40405273 C107.02149414 18.62030273 106.98024414 17.83655273 106.93774414 17.02905273 C107.06274414 14.40405273 107.06274414 14.40405273 109.06274414 12.40405273 C108.62511607 9.23124923 107.28912909 6.34737662 106.06274414 3.40405273 C105.07274414 4.06405273 104.08274414 4.72405273 103.06274414 5.40405273 C101.74274414 5.40405273 100.42274414 5.40405273 99.06274414 5.40405273 C99.06274414 4.41405273 99.06274414 3.42405273 99.06274414 2.40405273 C62.43274414 2.40405273 25.80274414 2.40405273 -11.93725586 2.40405273 C-11.93725586 3.39405273 -11.93725586 4.38405273 -11.93725586 5.40405273 C-13.25725586 5.40405273 -14.57725586 5.40405273 -15.93725586 5.40405273 C-15.93725586 6.39405273 -15.93725586 7.38405273 -15.93725586 8.40405273 C-16.59725586 8.40405273 -17.25725586 8.40405273 -17.93725586 8.40405273 C-17.07770507 5.51283644 -16.34099541 3.75340522 -14.0388031 1.76133728 C-9.39740455 -0.26980977 -5.0144424 -0.0217347 0 0 Z " fill="#31C5BE" transform="translate(71.937255859375,50.595947265625)"/>
<path d="M0 0 C0.99 0 1.98 0 3 0 C3.1773398 20.36654372 3.34300423 40.7331505 3.49477577 61.0999012 C3.56551826 70.55656389 3.64007879 80.01316767 3.72363281 89.46972656 C3.79645002 97.71220093 3.86209824 105.95469591 3.91914403 114.19729507 C3.94959859 118.5615483 3.98363858 122.92570703 4.02626419 127.28985977 C4.06628236 131.39865267 4.09670469 135.50740557 4.11981392 139.61632729 C4.12997189 141.12318909 4.14361577 142.63003212 4.16103554 144.13682747 C4.18433073 146.19733012 4.1949732 148.2575338 4.20254517 150.31814575 C4.2117631 151.47038698 4.22098103 152.62262821 4.23047829 153.80978584 C3.98456314 157.21367264 3.35119256 159.86867676 2 163 C-0.625 164.375 -0.625 164.375 -3 165 C-3 162 -3 162 -1.52254772 160.21745682 C0.54275355 157.2095272 0.36940884 155.15171342 0.36076355 151.52069092 C0.36332682 150.87207195 0.3658901 150.22345297 0.36853105 149.55517888 C0.37346873 147.38386298 0.35697723 145.21324392 0.34057617 143.04199219 C0.33972989 141.4847719 0.34020506 139.92755041 0.34190369 138.37033081 C0.34276503 134.143325 0.32511679 129.91657416 0.30418181 125.68962765 C0.28543822 121.27204109 0.2836664 116.8544488 0.28010559 112.43682861 C0.27077831 104.07165392 0.24615528 95.70659674 0.21605712 87.34147382 C0.18253437 77.81799962 0.16603245 68.29451984 0.15097082 58.77100134 C0.11960633 39.18060195 0.06683254 19.59030838 0 0 Z " fill="#2FC1B7" transform="translate(207,35)"/>
<path d="M0 0 C0.33 0 0.66 0 1 0 C1.00146656 0.81060253 1.00293312 1.62120506 1.00444412 2.45637131 C1.04147648 22.16924393 1.10044362 41.88194414 1.18390274 61.59467697 C1.22373241 71.12757403 1.2561049 80.66038806 1.27099609 90.19335938 C1.2839923 98.50114764 1.31090479 106.80875353 1.35461307 115.1164391 C1.37727377 119.51638798 1.39290793 123.91611155 1.39188385 128.31612396 C1.39113994 132.45633904 1.40898149 136.59605518 1.44116783 140.7361412 C1.44969674 142.256692 1.45139653 143.77729858 1.44580269 145.29786301 C1.43918559 147.37272538 1.45702423 149.44598955 1.48101807 151.52069092 C1.48470524 152.68215008 1.48839241 153.84360924 1.49219131 155.04026413 C2.10736479 158.62576997 3.18737889 159.77209119 6 162 C8.87832965 163.43916482 11.36255045 163.14133272 14.58047485 163.15821838 C15.26413695 163.16315636 15.94779904 163.16809434 16.65217817 163.17318195 C18.95382589 163.18859778 21.25544564 163.19692857 23.55712891 163.20532227 C25.20272571 163.21489759 26.84832003 163.22490746 28.49391174 163.23532104 C32.97090744 163.2624137 37.44791373 163.28339961 41.92494631 163.30332303 C46.60016095 163.32515574 51.2753428 163.35255768 55.95053101 163.37937927 C64.8079799 163.42934296 73.66544696 163.47426812 82.52293146 163.51740164 C92.60503256 163.56674264 102.68710075 163.62167238 112.76917005 163.67708123 C133.51274939 163.79095769 154.25636013 163.89778436 175 164 C175 164.33 175 164.66 175 165 C153.05151339 165.07005755 131.1030452 165.12297223 109.15446949 165.15543652 C98.96353736 165.17091039 88.77267467 165.19200987 78.58178711 165.22631836 C69.70019491 165.25620476 60.81865299 165.27557122 51.9370119 165.28226548 C47.2335317 165.28617902 42.53019537 165.29538723 37.82676125 165.31719017 C33.40024799 165.3375433 28.97393796 165.34383617 24.54738235 165.33932304 C22.92240101 165.34014877 21.2974129 165.34612145 19.672472 165.35761642 C17.45378686 165.37254251 15.23586903 165.36895365 13.01716614 165.36076355 C11.77551099 165.36352893 10.53385584 165.36629431 9.25457478 165.36914349 C5.69366608 164.9652547 3.80763351 164.20091159 1 162 C-0.1181765 158.6454705 -0.12304082 156.13879532 -0.12025452 152.60298157 C-0.12110894 151.95113347 -0.12196337 151.29928537 -0.12284368 150.6276843 C-0.12449308 148.43966863 -0.11898595 146.25172933 -0.11352539 144.0637207 C-0.11324338 142.49679567 -0.11340153 140.92987051 -0.1139679 139.36294556 C-0.11425531 135.10498301 -0.10836752 130.84704851 -0.10139394 126.58909249 C-0.0951512 122.1407919 -0.09455587 117.6924907 -0.09336853 113.2441864 C-0.09025794 104.81882147 -0.0820482 96.39346949 -0.07201904 87.96811026 C-0.06084948 78.37693111 -0.05534532 68.78575135 -0.05032361 59.19456732 C-0.03986537 39.46303765 -0.02227117 19.73151964 0 0 Z " fill="#3CBBB5" transform="translate(27,36)"/>
<path d="M0 0 C14.77738428 -0.04673633 29.55475877 -0.08199685 44.33220196 -0.10362434 C51.19374246 -0.11393361 58.05523703 -0.12798725 64.91674805 -0.15087891 C71.53678599 -0.1729544 78.1567887 -0.18456458 84.77686501 -0.18975449 C87.30425582 -0.19345371 89.83164399 -0.20067723 92.35901451 -0.21146011 C95.89524385 -0.22594905 99.43127511 -0.227979 102.9675293 -0.22705078 C104.01553711 -0.23424133 105.06354492 -0.24143188 106.14331055 -0.24884033 C107.10939743 -0.246091 108.07548431 -0.24334167 109.07084656 -0.24050903 C109.90691279 -0.24235262 110.74297903 -0.24419621 111.60438061 -0.24609566 C115.50800914 0.1549138 118.28037164 1.41651755 121.3125 3.875 C123.93364035 8.72896362 123.31027709 13.59600741 123 19 C122.34 19 121.68 19 121 19 C121.03480469 18.40832031 121.06960937 17.81664063 121.10546875 17.20703125 C121.27323815 12.30976248 121.31859893 8.91120588 118 5 C114.98704241 3.14856666 112.7021278 2.74472772 109.19110107 2.7215271 C108.22638885 2.71036362 107.26167664 2.69920013 106.26773071 2.68769836 C104.69032608 2.68445808 104.69032608 2.68445808 103.08105469 2.68115234 C101.96856354 2.67110672 100.85607239 2.6610611 99.70986938 2.65071106 C96.03054321 2.6198058 92.35129004 2.60282329 88.671875 2.5859375 C86.12167733 2.56723179 83.57148589 2.54765883 81.02130127 2.5272522 C74.99366126 2.48111543 68.96602833 2.44372985 62.938308 2.41057932 C56.07492609 2.37234492 49.21163881 2.32293824 42.3483367 2.27259517 C28.23229467 2.16930265 14.11619168 2.08003356 0 2 C0 1.34 0 0.68 0 0 Z " fill="#C1FAF9" transform="translate(61,49)"/>
<path d="M0 0 C1.01836756 -0.00467997 1.01836756 -0.00467997 2.0573082 -0.00945449 C4.31336109 -0.01737886 6.56914082 -0.01113282 8.82519531 -0.00482178 C10.45031898 -0.00753412 12.07544141 -0.01109641 13.70056152 -0.01544189 C18.10133392 -0.02453927 22.50201227 -0.02103259 26.90278625 -0.01468372 C31.51462044 -0.00961 36.12644674 -0.01431899 40.73828125 -0.01745605 C48.48211102 -0.0210917 56.2259026 -0.01630714 63.96972656 -0.0067749 C72.91464676 0.00410887 81.85947578 0.00058301 90.80439377 -0.01042771 C98.49291131 -0.01951203 106.18140146 -0.02078026 113.86992264 -0.01555037 C118.45817814 -0.01243698 123.04639082 -0.01200402 127.63464355 -0.01862335 C131.94879919 -0.02441283 136.26283758 -0.02037062 140.57698059 -0.00883484 C142.15757554 -0.00619682 143.7381804 -0.00693865 145.31877136 -0.01136017 C147.48152637 -0.0168511 149.64390913 -0.00993897 151.80664062 0 C153.01523743 0.00075405 154.22383423 0.0015081 155.46905518 0.002285 C159.25147068 0.2794817 162.30494189 1.09535098 165.90332031 2.25396729 C165.90332031 2.58396729 165.90332031 2.91396729 165.90332031 3.25396729 C163.57037256 3.29638452 161.23629464 3.29489666 158.90332031 3.25396729 C158.57332031 2.92396729 158.24332031 2.59396729 157.90332031 2.25396729 C155.83226137 2.1549405 153.75776638 2.12764403 151.68434143 2.12698364 C151.02744621 2.12542365 150.37055098 2.12386366 149.69374985 2.1222564 C147.47655634 2.11824459 145.25943043 2.12143674 143.04223633 2.12457275 C141.45914672 2.12321878 139.87605744 2.12143887 138.29296875 2.1192627 C133.98103992 2.11468753 129.6691349 2.11647836 125.35720563 2.11964178 C120.8537726 2.1221654 116.35034167 2.1198278 111.84690857 2.11825562 C104.28164299 2.11643374 96.71638715 2.11884051 89.15112305 2.12359619 C80.3948401 2.12903688 71.63858044 2.12727763 62.88229805 2.12176979 C55.37657425 2.11723683 47.87085748 2.11658906 40.36513275 2.11920846 C35.8770042 2.12077048 31.3888866 2.12096707 26.90075874 2.11767197 C22.6811196 2.11479069 18.46151057 2.11677371 14.24187469 2.12256622 C12.68982175 2.12389252 11.13776629 2.1235019 9.58571434 2.12130356 C7.47353587 2.11858691 5.36145502 2.12197955 3.24928284 2.12698364 C2.06515588 2.12736067 0.88102892 2.12773769 -0.33898067 2.12812614 C-3.05744898 2.06519525 -3.05744898 2.06519525 -5.09667969 3.25396729 C-7.76904178 3.38812201 -10.41918457 3.29715269 -13.09667969 3.25396729 C-13.09667969 3.91396729 -13.09667969 4.57396729 -13.09667969 5.25396729 C-14.74667969 5.25396729 -16.39667969 5.25396729 -18.09667969 5.25396729 C-12.86630156 0.65123453 -6.75136217 0.00421222 0 0 Z " fill="#3DC5C2" transform="translate(41.0966796875,5.74603271484375)"/>
<path d="M0 0 C1.02231809 -0.00445668 1.02231809 -0.00445668 2.06528908 -0.0090034 C4.35994967 -0.01770817 6.6545582 -0.01920013 8.94923401 -0.02069092 C10.58996187 -0.02531777 12.23068866 -0.03034225 13.87141418 -0.03573608 C18.33623041 -0.04887336 22.80103159 -0.05530742 27.26586413 -0.05974674 C30.05292702 -0.06267483 32.83998577 -0.06677909 35.62704659 -0.07125092 C44.34034692 -0.08492823 53.05363783 -0.09459421 61.76694816 -0.09845281 C71.83811748 -0.1029368 81.90915129 -0.12049949 91.98027939 -0.1494534 C99.75695051 -0.17103793 107.53358342 -0.18115533 115.3102842 -0.18249393 C119.95888697 -0.18354411 124.60736242 -0.18949729 129.25593376 -0.20731354 C133.62666891 -0.22373893 137.99718025 -0.22597683 142.36793518 -0.21717453 C143.97440247 -0.21640122 145.58088151 -0.22078533 147.1873188 -0.23063278 C149.37596295 -0.24326516 151.56380387 -0.23752399 153.75244141 -0.22705078 C155.59167002 -0.22925062 155.59167002 -0.22925062 157.46805477 -0.2314949 C160.43971252 0.14044189 160.43971252 0.14044189 162.35766697 1.66341019 C162.714742 2.15083065 163.07181704 2.63825111 163.43971252 3.14044189 C162.91882931 2.97870515 162.39794609 2.8169684 161.86127853 2.65033054 C158.76698508 1.99879137 155.85844674 1.99905218 152.69465637 1.98222351 C152.01745253 1.97728553 151.34024869 1.97234756 150.64252353 1.96725994 C148.37472698 1.95190932 146.1069587 1.94353095 143.83912659 1.93511963 C142.21293896 1.92553919 140.58675382 1.91552901 138.96057129 1.90512085 C134.54567558 1.87808371 130.13076919 1.85706768 125.71583652 1.83711886 C121.10202654 1.81525199 116.48824941 1.78786672 111.87446594 1.76106262 C103.137498 1.71114524 94.40051181 1.66620286 85.66350818 1.62304026 C75.71678733 1.57365974 65.77009946 1.51874462 55.82341051 1.46336067 C35.36220857 1.34955527 14.90097515 1.24271307 -5.56028748 1.14044189 C-5.56028748 2.13044189 -5.56028748 3.12044189 -5.56028748 4.14044189 C-7.21028748 4.47044189 -8.86028748 4.80044189 -10.56028748 5.14044189 C-8.08765937 -0.3346632 -5.81242011 0.01410535 0 0 Z " fill="#DEFEFE" transform="translate(40.56028747558594,27.85955810546875)"/>
<path d="M0 0 C0.99 0.33 1.98 0.66 3 1 C2.484375 1.825 1.96875 2.65 1.4375 3.5 C-0.31144463 7.75829998 -0.36370662 10.63075577 1 15 C2.90324013 17.94663241 2.90324013 17.94663241 5 20 C4.34 20.33 3.68 20.66 3 21 C0.43730503 19.95890517 -1.02610343 18.97389657 -3 17 C-3 17.66 -3 18.32 -3 19 C-3.66 19 -4.32 19 -5 19 C-5.20086443 15.28400809 -5.1519437 14.22791555 -3 11 C-2.8703774 9.04056895 -2.8703774 9.04056895 -3.0625 7 C-3.18 3.24 -3.18 3.24 -1.5 1 C-1.005 0.67 -0.51 0.34 0 0 Z " fill="#EAFDFC" transform="translate(54,53)"/>
<path d="M0 0 C0.33 0 0.66 0 1 0 C1.33 4.95 1.66 9.9 2 15 C3.65 15 5.3 15 7 15 C7.66 14.01 8.32 13.02 9 12 C11.32548007 11.30643577 13.65880445 10.63850788 16 10 C16.33 9.34 16.66 8.68 17 8 C18.32 8.33 19.64 8.66 21 9 C16 12 16 12 11 15 C9.68322266 15.84884766 9.68322266 15.84884766 8.33984375 16.71484375 C6 18 6 18 3.25 17.75 C1 17 1 17 0 16 C-0.07319621 13.30345146 -0.09242537 10.63308542 -0.0625 7.9375 C-0.05798828 7.17888672 -0.05347656 6.42027344 -0.04882812 5.63867188 C-0.0370068 3.75908129 -0.01907078 1.87953101 0 0 Z " fill="#3AC2B7" transform="translate(114,149)"/>
<path d="M0 0 C0.99 0 1.98 0 3 0 C2.67 8.25 2.34 16.5 2 25 C1.34 24.67 0.68 24.34 0 24 C0 16.08 0 8.16 0 0 Z " fill="#C3FBFA" transform="translate(60,121)"/>
<path d="M0 0 C7.25170662 0.23392602 12.38716718 3.82680329 18.4375 7.5625 C19.45521484 8.17802734 20.47292969 8.79355469 21.52148438 9.42773438 C24.02088975 10.94145876 26.51320619 12.46567653 29 14 C26.50907189 15.24546405 25.58919267 14.7767578 23 14 C23 13.34 23 12.68 23 12 C22.443125 11.896875 21.88625 11.79375 21.3125 11.6875 C18.52870742 10.85988599 16.40148127 9.62262248 14 8 C13.67 7.34 13.34 6.68 13 6 C10.47266765 5.34444881 10.47266765 5.34444881 8 5 C8 4.34 8 3.68 8 3 C5.36 2.67 2.72 2.34 0 2 C0 1.34 0 0.68 0 0 Z " fill="#3DC6BD" transform="translate(115,103)"/>
<path d="M0 0 C8.10849057 1.26132075 8.10849057 1.26132075 11.1875 3.8125 C13.9607659 8.68962278 13.3151054 13.51191435 13 19 C12.34 19 11.68 19 11 19 C11.03480469 18.40832031 11.06960937 17.81664063 11.10546875 17.20703125 C11.36086228 10.55311971 11.36086228 10.55311971 8 5 C5.4176495 3.45160838 2.76919803 2.17740249 0 1 C0 0.67 0 0.34 0 0 Z " fill="#D5FCFC" transform="translate(171,49)"/>
<path d="M0 0 C0 0.66 0 1.32 0 2 C-3.17552016 4.25298762 -6.60764369 6.0933842 -10 8 C-11.7015625 8.9590625 -11.7015625 8.9590625 -13.4375 9.9375 C-16 11 -16 11 -19 10 C-16.21251481 8.32626249 -13.41935573 6.66223733 -10.625 5 C-9.8309375 4.52304688 -9.036875 4.04609375 -8.21875 3.5546875 C-7.45820313 3.10351562 -6.69765625 2.65234375 -5.9140625 2.1875 C-4.8614624 1.55908203 -4.8614624 1.55908203 -3.78759766 0.91796875 C-2 0 -2 0 0 0 Z " fill="#D2FCFC" transform="translate(155,147)"/>
<path d="M0 0 C4.75 1.875 4.75 1.875 7 3 C7 4.98 7 6.96 7 9 C4.69 10.32 2.38 11.64 0 13 C0.33 12.01 0.66 11.02 1 10 C1.66 10 2.32 10 3 10 C2.67 9.01 2.34 8.02 2 7 C2.99 7 3.98 7 5 7 C4.20882096 5.00016466 4.20882096 5.00016466 3 3 C2.01 2.67 1.02 2.34 0 2 C0 1.34 0 0.68 0 0 Z " fill="#38C6BC" transform="translate(163,129)"/>
<path d="M0 0 C0.33 0 0.66 0 1 0 C1.04898438 1.05960938 1.09796875 2.11921875 1.1484375 3.2109375 C1.22346709 4.59898497 1.29901485 5.98700451 1.375 7.375 C1.4059375 8.07367188 1.436875 8.77234375 1.46875 9.4921875 C1.59499498 13.70185827 1.59499498 13.70185827 4 17 C7.08347826 17.16681109 7.08347826 17.16681109 10 17 C9.67 17.66 9.34 18.32 9 19 C6.36 19 3.72 19 1 19 C-0.25433458 15.23699626 -0.10695422 11.72789091 -0.0625 7.8125 C-0.05798828 7.06291016 -0.05347656 6.31332031 -0.04882812 5.54101562 C-0.03706354 3.69397617 -0.01912865 1.84697787 0 0 Z " fill="#D9FEFE" transform="translate(112,149)"/>
<path d="M0 0 C0.99 0.33 1.98 0.66 3 1 C2.484375 1.804375 1.96875 2.60875 1.4375 3.4375 C-0.40218298 7.99671435 0.1263679 11.26344042 1 16 C0.34 16 -0.32 16 -1 16 C-2.25200576 13.49598848 -2.43965401 11.34453013 -2.75 8.5625 C-2.86859375 7.59441406 -2.9871875 6.62632813 -3.109375 5.62890625 C-3 3 -3 3 -1.515625 1.15234375 C-1.01546875 0.77207031 -0.5153125 0.39179687 0 0 Z " fill="#D1FBFB" transform="translate(54,53)"/>
<path d="M0 0 C1.24546405 2.49092811 0.7767578 3.41080733 0 6 C-0.66 6 -1.32 6 -2 6 C-1.34 7.32 -0.68 8.64 0 10 C-0.66 10 -1.32 10 -2 10 C-2.33 10.99 -2.66 11.98 -3 13 C-3.66 12.67 -4.32 12.34 -5 12 C-4.52389341 7.00088076 -2.96837781 4.02167317 0 0 Z " fill="#32C9BE" transform="translate(13,18)"/>
<path d="M0 0 C0.66 0.33 1.32 0.66 2 1 C1.67 1.66 1.34 2.32 1 3 C0.01 3 -0.98 3 -2 3 C-2 3.66 -2 4.32 -2 5 C-7.45769231 8.10096154 -7.45769231 8.10096154 -10.203125 7.58984375 C-10.79609375 7.39519531 -11.3890625 7.20054687 -12 7 C-10.04754815 5.80285445 -8.08785003 4.61751926 -6.125 3.4375 C-5.03445312 2.77621094 -3.94390625 2.11492187 -2.8203125 1.43359375 C-1.88960937 0.96050781 -0.95890625 0.48742187 0 0 Z " fill="#CFFCFB" transform="translate(134,158)"/>
<path d="M0 0 C2.54532213 1.33964322 4.57078153 2.42770871 6.3125 4.75 C7.26539512 7.86856585 7.12452507 10.76234825 7 14 C6.67 14 6.34 14 6 14 C5.71125 12.948125 5.4225 11.89625 5.125 10.8125 C4.22774807 7.77181289 3.23576581 4.91287656 2 2 C1.34 2 0.68 2 0 2 C0 1.34 0 0.68 0 0 Z " fill="#49CBC3" transform="translate(176,52)"/>
<path d="M0 0 C0.66 0.33 1.32 0.66 2 1 C0.06745228 3.0245738 -1.63158688 4.42105792 -4 6 C-6.1875 5.625 -6.1875 5.625 -8 5 C-6.71475739 4.13619741 -5.42157581 3.28419631 -4.125 2.4375 C-3.04605469 1.72400391 -3.04605469 1.72400391 -1.9453125 0.99609375 C-1.30335938 0.66738281 -0.66140625 0.33867187 0 0 Z " fill="#CEFBFA" transform="translate(167,139)"/>
<path d="M0 0 C1.32 0.66 2.64 1.32 4 2 C3.67 2.99 3.34 3.98 3 5 C1.68 4.67 0.36 4.34 -1 4 C-0.67 2.68 -0.34 1.36 0 0 Z " fill="#28C6B9" transform="translate(58,68)"/>
<path d="M0 0 C3.79588866 0.54226981 5.47211993 2.20127563 8 5 C5.61435923 4.42415568 3.33317216 3.77772405 1 3 C0.67 2.01 0.34 1.02 0 0 Z " fill="#3EC7BF" transform="translate(210,10)"/>
</svg>
