<?xml version="1.0" encoding="UTF-8"?>
<svg version="1.1" xmlns="http://www.w3.org/2000/svg" width="283" height="271">
<path d="M0 0 C93.39 0 186.78 0 283 0 C283 89.43 283 178.86 283 271 C189.61 271 96.22 271 0 271 C0 181.57 0 92.14 0 0 Z " fill="#F8FBFE" transform="translate(0,0)"/>
<path d="M0 0 C0.68009125 -0.00817749 1.3601825 -0.01635498 2.06088257 -0.02478027 C4.31116874 -0.04958615 6.5613919 -0.06614051 8.81176758 -0.08056641 C9.58234308 -0.08589008 10.35291859 -0.09121376 11.14684486 -0.09669876 C15.22793202 -0.1234133 19.30898881 -0.14279099 23.39013672 -0.15722656 C26.7589036 -0.17054827 30.12706222 -0.19836949 33.49560547 -0.23925781 C37.57104929 -0.28872113 41.64594282 -0.31336441 45.72167397 -0.32045364 C47.26975831 -0.32714372 48.81783146 -0.34230719 50.36574364 -0.36634445 C66.11597567 -0.59691458 66.11597567 -0.59691458 72.26879883 5.19287109 C76.44677307 9.40131125 78.37458335 12.86062923 78.44580078 18.82861328 C78.46505363 20.23587677 78.46505363 20.23587677 78.48469543 21.67156982 C78.49208237 22.68406799 78.4994693 23.69656616 78.50708008 24.73974609 C78.51515182 25.78430969 78.52322357 26.82887329 78.53153992 27.90509033 C78.54537519 30.11753685 78.55609983 32.33000467 78.56396484 34.54248047 C78.58116155 37.91594211 78.6250518 41.28841961 78.66918945 44.66162109 C78.67931807 46.81265556 78.68783365 48.96369836 78.69458008 51.11474609 C78.71208817 52.11914734 78.72959625 53.12354858 78.74763489 54.15838623 C78.72841465 60.40479861 77.94153023 64.0923005 74.26879883 69.19287109 C69.1592848 74.04035876 64.69730528 75.45547062 57.7253418 75.35302734 C56.41983368 75.34062012 55.11432556 75.32821289 53.76925659 75.31542969 C53.07592098 75.30501648 52.38258537 75.29460327 51.66823959 75.28387451 C48.72700094 75.24501243 45.78609585 75.24312543 42.84463692 75.23907471 C37.37897296 75.23136933 31.9144705 75.21011431 26.44946289 75.12109375 C22.63691499 75.06042453 18.82689083 75.04941782 15.01395035 75.0697937 C13.57154658 75.06852768 12.12903251 75.04954851 10.68712997 75.01150513 C2.63499648 74.80774129 -2.7426867 75.43352835 -8.89086914 81.13818359 C-9.71344208 82.0329541 -10.53601501 82.92772461 -11.3835144 83.84960938 C-13.77729009 86.23887314 -15.53603226 87.19820521 -18.73120117 88.19287109 C-21.57208769 85.35198458 -20.99752102 83.44787133 -21.02172852 79.4675293 C-21.02844574 78.77622421 -21.03516296 78.08491913 -21.04208374 77.37266541 C-21.06113108 75.0795885 -21.06499203 72.78680353 -21.06713867 70.49365234 C-21.07356473 68.89902119 -21.08029294 67.30439123 -21.08731079 65.70976257 C-21.09930234 62.36141225 -21.10298998 59.01316521 -21.10180664 55.66479492 C-21.10160398 51.38527771 -21.12884231 47.10642854 -21.16335106 42.82706928 C-21.18565724 39.53009538 -21.18964296 36.23328086 -21.18858719 32.93623924 C-21.19094001 31.35945534 -21.1997456 29.78266683 -21.21525192 28.20595741 C-21.23497706 25.99190149 -21.22904871 23.77926722 -21.21704102 21.56518555 C-21.21989105 20.30768997 -21.22274109 19.0501944 -21.22567749 17.7545929 C-20.4290195 12.0162511 -17.71351419 7.49845792 -13.16870117 3.81787109 C-12.30051758 3.09470703 -12.30051758 3.09470703 -11.41479492 2.35693359 C-7.7747754 -0.15983164 -4.28351542 0.04476803 0 0 Z " fill="#19CFC7" transform="translate(94.731201171875,70.80712890625)"/>
<path d="M0 0 C3.25965443 0.30751457 4.34911952 1.14110215 6.75390625 3.31640625 C7.40488281 3.88488281 8.05585938 4.45335938 8.7265625 5.0390625 C13.41868741 10.32819734 15.19584082 14.50695754 15.14550781 21.56616211 C15.14609192 22.25968781 15.14667603 22.9532135 15.14727783 23.66775513 C15.14451525 25.93528222 15.11351378 28.20145573 15.08203125 30.46875 C15.07456227 32.05057558 15.06887244 33.63241048 15.06488037 35.21424866 C15.04967554 39.35891686 15.01043924 43.5030161 14.96606445 47.64746094 C14.92499976 51.88403631 14.90684556 56.12070445 14.88671875 60.35742188 C14.84393904 68.65650985 14.7757514 76.95513708 14.69140625 85.25390625 C12.33837891 85.8527832 12.33837891 85.8527832 9.69140625 86.25390625 C7.33984375 84.671875 7.33984375 84.671875 5.06640625 82.44140625 C0.5011262 78.03972839 -1.90092897 76.00593026 -8.38134766 75.99853516 C-9.63339996 75.99157623 -10.88545227 75.98461731 -12.17544556 75.97744751 C-13.17920164 75.97846907 -13.17920164 75.97846907 -14.20323563 75.97951126 C-16.30645032 75.98047854 -18.40915668 75.96750808 -20.51229858 75.95053101 C-26.49171933 75.90434063 -32.47109059 75.87968799 -38.45068359 75.87304688 C-42.11131244 75.86800151 -45.7714156 75.84359333 -49.43186569 75.80772018 C-50.81993818 75.79798493 -52.2080836 75.79555566 -53.59617996 75.80089188 C-62.31008885 75.83279643 -70.41187245 75.72866054 -77.14517212 69.57559204 C-80.60693037 65.89834516 -82.77107289 62.04735364 -84.30859375 57.25390625 C-84.06768092 54.9652344 -83.92428518 53.86959768 -82.30859375 52.25390625 C-80.51531931 52.15151264 -78.71805986 52.1181952 -76.921875 52.11206055 C-75.76977539 52.10502609 -74.61767578 52.09799164 -73.43066406 52.09074402 C-71.54492676 52.0844976 -71.54492676 52.0844976 -69.62109375 52.078125 C-67.65450629 52.06086411 -65.68791871 52.04357925 -63.72134399 52.02492237 C-58.86097322 51.97936665 -54.00070883 51.94168193 -49.14013672 51.92797852 C-46.42028848 51.91980745 -43.70089541 51.90113072 -40.98120117 51.87104797 C-38.42028941 51.8430253 -35.85915775 51.82996955 -33.2980957 51.83390808 C-24.62691576 51.71244896 -18.08314643 50.53612598 -11.43359375 44.75390625 C-6.11090254 38.49191659 -4.09042722 34.19232494 -3.9296875 25.80078125 C-3.91269302 25.09995422 -3.89569855 24.3991272 -3.87818909 23.67706299 C-3.82532787 21.45276733 -3.78485541 19.22848873 -3.74609375 17.00390625 C-3.70217266 14.76513086 -3.65555402 12.52649932 -3.60328674 10.28790283 C-3.55679245 8.26726217 -3.51927217 6.24642101 -3.48217773 4.22558594 C-3.25626926 0.35813452 -3.25626926 0.35813452 0 0 Z " fill="#1CCFC7" transform="translate(185.30859375,102.74609375)"/>
</svg>
