<?xml version="1.0" encoding="UTF-8"?>
<svg version="1.1" xmlns="http://www.w3.org/2000/svg" width="265" height="281">
<path d="M0 0 C87.45 0 174.9 0 265 0 C265 92.73 265 185.46 265 281 C177.55 281 90.1 281 0 281 C0 188.27 0 95.54 0 0 Z " fill="#FEFEFE" transform="translate(0,0)"/>
<path d="M0 0 C0.65418915 -0.00846954 1.3083783 -0.01693909 1.98239136 -0.02566528 C4.13966449 -0.04901636 6.29622345 -0.05005787 8.45361328 -0.04882812 C9.95810225 -0.05593172 11.46258851 -0.06363101 12.96707153 -0.07189941 C16.11940033 -0.08534042 19.27147871 -0.08691518 22.42382812 -0.08105469 C26.45472837 -0.07516364 30.48442203 -0.10572531 34.51508904 -0.14617157 C37.62247133 -0.17208118 40.72956453 -0.17492302 43.83703995 -0.17127991 C45.32255202 -0.17296864 46.80807779 -0.1825875 48.29348373 -0.20042419 C61.35532554 -0.33999404 61.35532554 -0.33999404 65.23144531 2.76953125 C68.55984997 6.83949756 69.65063207 8.87007185 69.68945312 14.08129883 C69.70221283 15.24293045 69.71497253 16.40456207 69.7281189 17.60139465 C69.73034454 18.85764145 69.73257019 20.11388824 69.73486328 21.40820312 C69.74484848 23.34484077 69.74484848 23.34484077 69.7550354 25.32060242 C69.76700989 28.0551589 69.77071621 30.78958907 69.76953125 33.52416992 C69.76932837 37.01799502 69.79659612 40.51100386 69.83107567 44.00463581 C69.8587504 47.3475032 69.85749563 50.69022274 69.85986328 54.03320312 C69.87423431 55.28337723 69.88860535 56.53355133 69.90341187 57.8216095 C69.84678824 68.59821559 69.84678824 68.59821559 65.39892578 73.41992188 C61.46450788 76.87744064 58.22794628 77.54604906 53.07470703 77.51757812 C52.04667969 77.51435547 51.01865234 77.51113281 49.95947266 77.5078125 C48.88761719 77.49943359 47.81576172 77.49105469 46.71142578 77.48242188 C45.62796875 77.47791016 44.54451172 77.47339844 43.42822266 77.46875 C40.75173493 77.45695931 38.07535801 77.44050251 35.39892578 77.41992188 C33.35556218 86.15813755 32.86340475 95.55200088 37.6350708 103.47155762 C45.90113068 115.23978164 59.54827252 131.67161708 74.32861328 134.39648438 C78.279864 134.66780564 81.87391369 134.32355156 85.77392578 133.70507812 C88.6787893 133.26496524 89.9255407 133.16473097 92.53564453 134.57177734 C95.53010628 137.05071183 97.15378706 138.68450572 98.39892578 142.41992188 C98.495907 144.02416805 98.53706989 145.63209868 98.54418945 147.23925781 C98.55056931 148.21747498 98.55694916 149.19569214 98.56352234 150.20355225 C98.56463516 151.25979797 98.56574799 152.3160437 98.56689453 153.40429688 C98.57188713 155.03773041 98.57188713 155.03773041 98.57698059 156.7041626 C98.58204683 159.01077858 98.58438901 161.3174019 98.58422852 163.62402344 C98.58640851 167.14205129 98.60454974 170.65976229 98.62353516 174.17773438 C98.62647048 176.4199208 98.62845435 178.66210872 98.62939453 180.90429688 C98.63658005 181.95244568 98.64376556 183.00059448 98.65116882 184.08050537 C98.61815116 194.71381373 96.05911999 202.15125679 88.83642578 210.15039062 C87.11246627 211.76245854 85.34944232 213.09142045 83.39892578 214.41992188 C82.72345703 214.9071875 82.04798828 215.39445313 81.35205078 215.89648438 C74.64327712 219.82089773 67.91121041 219.88418904 60.33642578 219.91992188 C58.81094116 219.92934814 58.81094116 219.92934814 57.25463867 219.93896484 C46.16092207 219.75396479 37.40088791 217.33297331 29.39892578 209.41992188 C24.15864831 203.27959674 20.18471769 197.17676435 20.49267578 188.90039062 C20.55898189 183.10689435 19.53858222 179.99571658 15.44750977 175.7277832 C12.83759766 173.20409035 10.15197786 170.78602424 7.39892578 168.41992188 C6.70025391 167.80761719 6.00158203 167.1953125 5.28173828 166.56445312 C4.06502349 165.50700787 2.84362166 164.45493234 1.61767578 163.40820312 C-1.52818035 160.58911726 -4.53579451 157.64012906 -7.53857422 154.66992188 C-8.40953735 153.81829468 -8.40953735 153.81829468 -9.2980957 152.94946289 C-12.9568747 149.29938362 -14.46455872 147.26288107 -14.85107422 142.04492188 C-14.36173879 134.9495581 -9.39480363 130.91843284 -4.59716797 126.15039062 C-3.91807877 125.46938797 -3.23898956 124.78838531 -2.5393219 124.08674622 C-1.10866899 122.65473651 0.32449596 121.22523259 1.76000977 119.7980957 C3.964269 117.60459253 6.1576011 115.40056612 8.35009766 113.1953125 C9.7420345 111.80469636 11.13459115 110.41470027 12.52783203 109.02539062 C13.18618546 108.36298874 13.84453888 107.70058685 14.52284241 107.01811218 C15.13365158 106.41360733 15.74446075 105.80910248 16.3737793 105.1862793 C17.17961205 104.38283333 17.17961205 104.38283333 18.00172424 103.56315613 C19.39892578 102.41992188 19.39892578 102.41992188 21.39892578 102.41992188 C21.39892578 94.16992188 21.39892578 85.91992188 21.39892578 77.41992188 C18.68802734 77.48953125 18.68802734 77.48953125 15.92236328 77.56054688 C13.53956733 77.59807122 11.15675348 77.63447067 8.77392578 77.66992188 C7.58412109 77.7034375 6.39431641 77.73695312 5.16845703 77.77148438 C-5.89754248 77.89512683 -5.89754248 77.89512683 -10.60107422 73.41992188 C-14.03116892 69.73563354 -15.10293655 67.56335718 -15.11865234 62.53149414 C-15.13756531 60.7892733 -15.13756531 60.7892733 -15.15686035 59.01185608 C-15.14876343 57.76593185 -15.1406665 56.52000763 -15.13232422 55.23632812 C-15.13615112 53.94806625 -15.13997803 52.65980438 -15.1439209 51.33250427 C-15.14980608 48.60973862 -15.14128724 45.8874992 -15.12255859 43.16479492 C-15.09979095 39.68663056 -15.11288233 36.20970244 -15.13684845 32.7315836 C-15.15483952 29.39973465 -15.14221455 26.06821212 -15.13232422 22.73632812 C-15.14042114 21.49242813 -15.14851807 20.24852814 -15.15686035 18.9669342 C-15.03959736 8.1356083 -15.03959736 8.1356083 -10.60107422 3.41992188 C-7.16897667 0.19666786 -4.64377343 0.03310391 0 0 Z " fill="#56999C" transform="translate(145.60107421875,29.580078125)"/>
<path d="M0 0 C0.73669922 -0.00386719 1.47339844 -0.00773437 2.23242188 -0.01171875 C7.68581509 -0.00168491 7.68581509 -0.00168491 8.8125 1.125 C8.88563567 3.65549402 8.90497527 6.15804837 8.875 8.6875 C8.87048828 9.39841797 8.86597656 10.10933594 8.86132812 10.84179688 C8.84950864 12.60290013 8.83157263 14.36396036 8.8125 16.125 C7.64332031 16.23457031 6.47414063 16.34414063 5.26953125 16.45703125 C3.72128806 16.61654721 2.17311442 16.77673914 0.625 16.9375 C-0.14392578 17.00775391 -0.91285156 17.07800781 -1.70507812 17.15039062 C-6.22199837 17.63503872 -9.47201064 18.29784396 -13.1875 21.125 C-18.1349597 27.48601961 -17.34843945 35.871412 -17.43359375 43.5546875 C-17.46652836 45.58724395 -17.49974007 47.61979593 -17.53320312 49.65234375 C-17.58054997 52.82728059 -17.6250272 56.00219879 -17.66430664 59.17724609 C-17.70426654 62.26157612 -17.7557409 65.34555508 -17.80859375 68.4296875 C-17.8170079 69.3674704 -17.82542206 70.3052533 -17.83409119 71.27145386 C-18.04427946 82.60915544 -20.38301058 93.11564624 -28.51171875 101.53125 C-30.68911307 103.46671162 -32.91100272 105.30835517 -35.1875 107.125 C-36.1775 108.115 -36.1775 108.115 -37.1875 109.125 C-36.69121094 109.4653125 -36.19492187 109.805625 -35.68359375 110.15625 C-26.49070086 116.71512614 -20.09597167 123.73705305 -18.1875 135.125 C-18.09715557 136.85074144 -18.05246763 138.57928185 -18.0456543 140.30737305 C-18.03861984 141.31579758 -18.03158539 142.32422211 -18.02433777 143.36320496 C-18.02017349 144.44346451 -18.01600922 145.52372406 -18.01171875 146.63671875 C-17.9885152 148.94467053 -17.96439765 151.25261326 -17.93945312 153.56054688 C-17.90440975 157.18324804 -17.87502556 160.80561708 -17.86157227 164.4284668 C-17.84601395 167.93578944 -17.80575059 171.44215255 -17.76171875 174.94921875 C-17.76362717 176.01935715 -17.76553558 177.08949554 -17.76750183 178.19206238 C-17.63951621 186.14073136 -16.46271913 193.67740091 -10.8125 199.625 C-6.03137519 201.60339647 -1.36227774 202.10271285 3.765625 202.6328125 C6.8125 203.125 6.8125 203.125 8.8125 205.125 C9.04296875 208.34765625 9.04296875 208.34765625 9 212.1875 C8.99355469 213.45722656 8.98710938 214.72695312 8.98046875 216.03515625 C8.8125 219.125 8.8125 219.125 7.8125 220.125 C-2.99340502 220.714413 -13.57906272 218.4828366 -22.1484375 211.53515625 C-23.8125 209.9375 -23.8125 209.9375 -26.1875 207.125 C-26.1875 206.465 -26.1875 205.805 -26.1875 205.125 C-26.8475 205.125 -27.5075 205.125 -28.1875 205.125 C-28.99614115 203.52932262 -29.78327549 201.92274718 -30.5625 200.3125 C-31.00335938 199.41917969 -31.44421875 198.52585938 -31.8984375 197.60546875 C-34.99309468 189.24989435 -35.47656745 180.66494916 -35.49609375 171.83203125 C-35.52123173 169.71679386 -35.54663004 167.60155955 -35.57226562 165.48632812 C-35.6010511 162.20158552 -35.62511718 158.91689593 -35.64379883 155.63208008 C-35.66551333 152.42764043 -35.70492541 149.22377155 -35.74609375 146.01953125 C-35.74620956 145.04538773 -35.74632538 144.0712442 -35.7464447 143.06758118 C-35.84146798 136.47883431 -36.49217191 130.44684503 -40.80078125 125.13671875 C-46.3374126 120.82196466 -51.46051289 118.36732904 -58.1875 116.125 C-58.1875 111.505 -58.1875 106.885 -58.1875 102.125 C-56.640625 101.526875 -55.09375 100.92875 -53.5 100.3125 C-45.78583661 97.20072182 -41.82895858 94.08718787 -37.1875 87.125 C-36.34124532 83.83771808 -36.05719468 80.7432841 -36.02978516 77.35742188 C-36.01439194 75.9794342 -36.01439194 75.9794342 -35.99868774 74.5736084 C-35.99138641 73.59025513 -35.98408508 72.60690186 -35.9765625 71.59375 C-35.94847251 69.48176337 -35.91980793 67.36978431 -35.890625 65.2578125 C-35.84957709 61.95150136 -35.81266311 58.64532839 -35.78613281 55.33886719 C-35.48279277 20.49660188 -35.48279277 20.49660188 -24.03125 7.73046875 C-16.94546019 1.5604272 -9.08585095 -0.04845787 0 0 Z " fill="#56999C" transform="translate(78.1875,29.875)"/>
<path d="M0 0 C17.82 0 35.64 0 54 0 C54 15.18 54 30.36 54 46 C36.18 46 18.36 46 0 46 C0 30.82 0 15.64 0 0 Z " fill="#FEFEFE" transform="translate(146,45)"/>
<path d="M0 0 C0.0991017 6.01394883 0.17157916 12.02741915 0.21972656 18.04199219 C0.2398042 20.0866728 0.26707225 22.13129627 0.30175781 24.17578125 C0.35044519 27.11993537 0.37300744 30.06332834 0.390625 33.0078125 C0.41127014 33.9174173 0.43191528 34.82702209 0.45318604 35.76419067 C0.45553338 42.44933696 -0.88925971 45.7221867 -5.52734375 50.609375 C-11.56104983 55.48982424 -16.285074 56.36256825 -23.8125 56.375 C-24.58142578 56.39949219 -25.35035156 56.42398438 -26.14257812 56.44921875 C-32.4549347 56.48118005 -37.80774487 54.94673622 -42.5300293 50.58764648 C-45.12306513 47.64724081 -47.0302361 44.79089524 -48 41 C-48.165 40.37609375 -48.33 39.7521875 -48.5 39.109375 C-49.07232849 35.13169198 -48.53933681 32.78317952 -46.24609375 29.453125 C-43.89900006 26.85258926 -41.46655178 24.41550331 -38.95214844 21.97998047 C-36.66963224 19.66492215 -34.55137893 17.2347686 -32.4140625 14.78515625 C-30.73588197 12.93873339 -29.05618556 11.09368718 -27.375 9.25 C-26.22402832 7.89007935 -26.22402832 7.89007935 -25.04980469 6.50268555 C-17.47643088 -1.5380569 -10.33774175 -1.00231999 0 0 Z " fill="#FCFDFD" transform="translate(229,178)"/>
<path d="M0 0 C4.00517396 1.60373148 6.6771098 4.42113986 9.640625 7.4453125 C10.43119293 8.24012527 10.43119293 8.24012527 11.23773193 9.05099487 C12.91325675 10.73767825 14.58167722 12.43119564 16.25 14.125 C17.38755851 15.27259388 18.52557436 16.41973461 19.6640625 17.56640625 C22.44803465 20.37238137 25.2256576 23.18450464 28 26 C22.75541414 32.36590304 16.97902678 38.13570612 11.125 43.9375 C10.14039081 44.91708237 9.156014 45.89689837 8.171875 46.87695312 C5.78351797 49.25360252 3.39284788 51.62787356 1 54 C-5.18134869 48.89551178 -10.79822878 43.31705058 -16.4375 37.625 C-17.35982422 36.69816406 -18.28214844 35.77132812 -19.23242188 34.81640625 C-21.49058625 32.54654154 -23.74636942 30.27436462 -26 28 C-24.50767714 24.51298328 -22.51441849 22.28172214 -19.82421875 19.62890625 C-18.99599609 18.80712891 -18.16777344 17.98535156 -17.31445312 17.13867188 C-16.44755859 16.28853516 -15.58066406 15.43839844 -14.6875 14.5625 C-13.83220703 13.71623047 -12.97691406 12.86996094 -12.09570312 11.99804688 C-10.45299493 10.37315271 -8.80839304 8.75017008 -7.16162109 7.12939453 C-4.76174901 4.76530098 -2.37712627 2.38692885 0 0 Z " fill="#FBFCFC" transform="translate(173,144)"/>
<path d="M0 0 C0.33 0 0.66 0 1 0 C0.86795166 0.56468994 0.73590332 1.12937988 0.59985352 1.71118164 C-0.99735107 10.0168111 -1.27627942 18.62445177 3.25042725 26.05163574 C7.09997575 31.4666433 11.60571408 36.20516161 16.25 40.9375 C16.90001984 41.63215363 17.55003967 42.32680725 18.21975708 43.04251099 C25.26079817 50.45400035 31.17090943 55.52447693 41.65740967 56.30921936 C45.78986091 56.40888405 49.87921856 56.32571713 54 56 C54 56.33 54 56.66 54 57 C50.41682042 57.08720919 46.83391433 57.14046112 43.25 57.1875 C42.23421875 57.21263672 41.2184375 57.23777344 40.171875 57.26367188 C39.1921875 57.27333984 38.2125 57.28300781 37.203125 57.29296875 C36.30239258 57.3086792 35.40166016 57.32438965 34.47363281 57.34057617 C31.51378279 56.93305636 30.14086551 56.05379533 28 54 C28 53.34 28 52.68 28 52 C27.34 52 26.68 52 26 52 C26 51.34 26 50.68 26 50 C25.34 50 24.68 50 24 50 C22.375 48.625 22.375 48.625 21 47 C21 46.34 21 45.68 21 45 C19.515 44.505 19.515 44.505 18 44 C18 43.34 18 42.68 18 42 C16.515 41.505 16.515 41.505 15 41 C15 40.34 15 39.68 15 39 C14.34 39 13.68 39 13 39 C13 38.34 13 37.68 13 37 C12.01 36.67 11.02 36.34 10 36 C10 35.34 10 34.68 10 34 C9.01 33.67 8.02 33.34 7 33 C7 32.34 7 31.68 7 31 C6.34 31 5.68 31 5 31 C5 30.34 5 29.68 5 29 C4.01 28.67 3.02 28.34 2 28 C2 27.34 2 26.68 2 26 C1.34 26 0.68 26 0 26 C0 17.42 0 8.84 0 0 Z " fill="#397E81" transform="translate(180,107)"/>
<path d="M0 0 C1.79133978 -0.05391993 3.58313899 -0.09275571 5.375 -0.125 C6.37273437 -0.14820313 7.37046875 -0.17140625 8.3984375 -0.1953125 C11 0 11 0 13 2 C13.23046875 5.22265625 13.23046875 5.22265625 13.1875 9.0625 C13.18105469 10.33222656 13.17460938 11.60195312 13.16796875 12.91015625 C13 16 13 16 12 17 C1.27484075 17.58500869 -9.56798256 15.44543309 -17.9609375 8.33984375 C-19.36325036 6.94740634 -20.69136524 5.48082354 -22 4 C-21.67 3.34 -21.34 2.68 -21 2 C-20.30777344 2.68835938 -20.30777344 2.68835938 -19.6015625 3.390625 C-10.45027145 11.99934938 -1.26613326 13.5569255 11 15 C11 10.71 11 6.42 11 2 C5.555 1.505 5.555 1.505 0 1 C0 0.67 0 0.34 0 0 Z " fill="#43888C" transform="translate(74,233)"/>
<path d="M0 0 C2.6190611 2.61427305 5.23280715 5.23318818 7.83203125 7.8671875 C14.26998231 14.40236962 14.26998231 14.40236962 21.0625 20.5625 C21.67222656 21.09875 22.28195313 21.635 22.91015625 22.1875 C24.55702125 23.61580909 26.23928257 25.00330733 27.93359375 26.375 C32.2559153 30.07220939 35.63844176 33.0245589 36.69921875 38.8203125 C36.68872877 42.28200543 36.49484009 45.57610647 36 49 C33.73734815 45.60602222 33.95423524 44.93886011 34.125 41.0625 C33.57952862 33.29210578 28.00097991 29.0850593 22.48339844 24.27490234 C21.99387695 23.85418457 21.50435547 23.4334668 21 23 C20.30132812 22.38769531 19.60265625 21.77539062 18.8828125 21.14453125 C17.66684216 20.08773299 16.44675557 19.03565286 15.22265625 17.98828125 C12.06263814 15.16148122 9.02526257 12.2198951 6 9.25 C5.410979 8.68224854 4.82195801 8.11449707 4.21508789 7.52954102 C2.75066272 6.07723105 1.36815204 4.54334225 0 3 C0 2.01 0 1.02 0 0 Z " fill="#3B8184" transform="translate(132,175)"/>
<path d="M0 0 C7 7 14 14 21 21 C17.08697446 21 16.49804043 19.88397412 13.76953125 17.16796875 C12.96708984 16.36939453 12.16464844 15.57082031 11.33789062 14.74804688 C10.50451172 13.90306641 9.67113281 13.05808594 8.8125 12.1875 C7.96751953 11.35412109 7.12253906 10.52074219 6.25195312 9.66210938 C5.45337891 8.85966797 4.65480469 8.05722656 3.83203125 7.23046875 C3.09702393 6.49207764 2.3620166 5.75368652 1.60473633 4.99291992 C0 3 0 3 0 0 Z " fill="#42898D" transform="translate(132,175)"/>
<path d="M0 0 C0.33 0.66 0.66 1.32 1 2 C-2.88643796 6.5132828 -7.19725542 9.40139058 -13 11 C-15.27734375 10.6015625 -15.27734375 10.6015625 -17 10 C-16.19175781 9.69707031 -15.38351563 9.39414063 -14.55078125 9.08203125 C-6.32914371 5.88189256 -6.32914371 5.88189256 0 0 Z " fill="#3A8084" transform="translate(39,121)"/>
<path d="M0 0 C0.99 0.33 1.98 0.66 3 1 C3 1.66 3 2.32 3 3 C3.86625 3.37125 3.86625 3.37125 4.75 3.75 C7.3002997 5.16683317 9.01785701 6.87627537 11 9 C6.39860359 7.51131293 3.49772906 5.25370145 0 2 C0 1.34 0 0.68 0 0 Z " fill="#47898D" transform="translate(174,236)"/>
<path d="M0 0 C3.84685385 1.24762828 6.02929405 2.3870391 8 6 C7.67 6.99 7.34 7.98 7 9 C5.83037314 7.69013727 4.66437056 6.3770374 3.5 5.0625 C2.8503125 4.33160156 2.200625 3.60070312 1.53125 2.84765625 C0 1 0 1 0 0 Z " fill="#41878A" transform="translate(33,150)"/>
</svg>
