<?xml version="1.0" encoding="UTF-8"?>
<svg version="1.1" xmlns="http://www.w3.org/2000/svg" width="874" height="291">
<path d="M0 0 C288.42 0 576.84 0 874 0 C874 96.03 874 192.06 874 291 C585.58 291 297.16 291 0 291 C0 194.97 0 98.94 0 0 Z " fill="#FEFEFE" transform="translate(0,0)"/>
<path d="M0 0 C0.65418915 -0.00846954 1.3083783 -0.01693909 1.98239136 -0.02566528 C4.13966449 -0.04901636 6.29622345 -0.05005787 8.45361328 -0.04882812 C9.95810225 -0.05593172 11.46258851 -0.06363101 12.96707153 -0.07189941 C16.11940033 -0.08534042 19.27147871 -0.08691518 22.42382812 -0.08105469 C26.45472837 -0.07516364 30.48442203 -0.10572531 34.51508904 -0.14617157 C37.62247133 -0.17208118 40.72956453 -0.17492302 43.83703995 -0.17127991 C45.32255202 -0.17296864 46.80807779 -0.1825875 48.29348373 -0.20042419 C61.35532554 -0.33999404 61.35532554 -0.33999404 65.23144531 2.76953125 C68.49678022 6.76237601 69.6496649 8.76916484 69.67358398 13.88183594 C69.683116 15.00019836 69.69264801 16.11856079 69.70246887 17.27081299 C69.70155746 18.48017517 69.70064606 19.68953735 69.69970703 20.93554688 C69.70399216 22.17987488 69.70827728 23.42420288 69.71269226 24.70623779 C69.71844151 27.34255026 69.71986495 29.97847205 69.71459961 32.61474609 C69.70996973 35.31120485 69.71687137 38.00721271 69.73510742 40.70361328 C69.75964895 44.59356392 69.76376068 48.48302833 69.76220703 52.37304688 C69.77141678 53.57431213 69.78062653 54.77557739 69.79011536 56.01324463 C69.75582474 62.23944556 69.54480415 66.97713485 66.39892578 72.41992188 C62.14116017 76.36614366 59.67704466 77.54770145 53.95361328 77.51757812 C52.98407715 77.51508057 52.01454102 77.51258301 51.015625 77.51000977 C49.78086426 77.50090576 48.54610352 77.49180176 47.27392578 77.48242188 C43.35517578 77.46179688 39.43642578 77.44117187 35.39892578 77.41992188 C35.39892578 85.66992188 35.39892578 93.91992188 35.39892578 102.41992188 C36.71892578 103.07992187 38.03892578 103.73992187 39.39892578 104.41992188 C41.39125117 106.47912202 43.28998494 108.55343727 45.17626953 110.70507812 C58.35234458 126.86902429 58.35234458 126.86902429 76.5769043 134.59545898 C79.89482038 134.45639905 83.11768438 134.06971203 86.39331055 133.53540039 C90.36359601 133.30680087 93.22860492 135.49173636 96.21142578 137.85742188 C98.6082661 141.01115914 98.53600013 144.65024186 98.59179688 148.48876953 C98.6078598 149.49726959 98.62392273 150.50576965 98.64047241 151.54483032 C98.68521612 156.15959814 98.72600165 160.77422572 98.74902344 165.38916016 C98.76555249 167.81569022 98.79280171 170.24217221 98.83105469 172.66845703 C98.88611435 176.18222097 98.90774465 179.6948458 98.92236328 183.20898438 C98.94503265 184.28225983 98.96770203 185.35553528 98.99105835 186.46133423 C98.96733865 195.01207482 96.57924451 201.1202363 91.51220703 207.97070312 C82.32159358 216.96195402 73.38380456 219.6097065 60.83642578 219.66992188 C59.26538086 219.70085937 59.26538086 219.70085937 57.66259766 219.73242188 C46.33287341 219.78875363 37.58073854 217.5108256 29.39892578 209.41992188 C24.15864831 203.27959674 20.18471769 197.17676435 20.49267578 188.90039062 C20.55898189 183.10689435 19.53858222 179.99571658 15.44750977 175.7277832 C12.83759766 173.20409035 10.15197786 170.78602424 7.39892578 168.41992188 C6.70025391 167.80761719 6.00158203 167.1953125 5.28173828 166.56445312 C4.06502349 165.50700787 2.84362166 164.45493234 1.61767578 163.40820312 C-1.52818035 160.58911726 -4.53579451 157.64012906 -7.53857422 154.66992188 C-8.40953735 153.81829468 -8.40953735 153.81829468 -9.2980957 152.94946289 C-12.92581378 149.33037068 -14.42722312 147.26274354 -14.91357422 142.10742188 C-14.32142332 135.12004127 -9.14380044 130.66389956 -4.35107422 125.98242188 C-3.77188232 125.40967529 -3.19269043 124.83692871 -2.59594727 124.24682617 C0.38908269 121.31513753 3.41141261 118.45942705 6.58642578 115.73242188 C7.18970703 115.18972656 7.79298828 114.64703125 8.41455078 114.08789062 C10.39892578 112.41992188 10.39892578 112.41992188 13.07080078 110.65820312 C17.41988648 107.33496109 19.93334798 104.93294055 20.93554688 99.5234375 C21.64499931 92.16599208 21.63010021 84.80231681 21.39892578 77.41992188 C20.64272949 77.44086914 19.8865332 77.46181641 19.10742188 77.48339844 C15.66305979 77.56682772 12.21891071 77.61866811 8.77392578 77.66992188 C7.58412109 77.7034375 6.39431641 77.73695312 5.16845703 77.77148438 C-5.77985815 77.89381192 -5.77985815 77.89381192 -10.60107422 73.41992188 C-14.09072582 69.44893902 -14.72630345 66.13739244 -14.77807617 60.94213867 C-14.79091141 59.82054855 -14.80374664 58.69895844 -14.81697083 57.54338074 C-14.82435776 56.3308815 -14.83174469 55.11838226 -14.83935547 53.86914062 C-14.84742722 52.62244095 -14.85549896 51.37574127 -14.86381531 50.09126282 C-14.8776553 47.45085942 -14.88867199 44.81058084 -14.89624023 42.17016602 C-14.90510182 39.46681185 -14.92597981 36.76397145 -14.95776367 34.06079102 C-15.00036184 30.16341605 -15.01659939 26.26671927 -15.02685547 22.36914062 C-15.04436356 21.16271408 -15.06187164 19.95628754 -15.07991028 18.71330261 C-15.05266849 8.1814218 -15.05266849 8.1814218 -10.60107422 3.41992188 C-7.17014963 0.19568789 -4.64324289 0.03310013 0 0 Z " fill="#52979A" transform="translate(150.60107421875,33.580078125)"/>
<path d="M0 0 C0.73669922 -0.00386719 1.47339844 -0.00773437 2.23242188 -0.01171875 C7.68581509 -0.00168491 7.68581509 -0.00168491 8.8125 1.125 C8.88563567 3.65549402 8.90497527 6.15804837 8.875 8.6875 C8.87048828 9.39841797 8.86597656 10.10933594 8.86132812 10.84179688 C8.84950864 12.60290013 8.83157263 14.36396036 8.8125 16.125 C7.64332031 16.23457031 6.47414063 16.34414063 5.26953125 16.45703125 C3.72128806 16.61654721 2.17311442 16.77673914 0.625 16.9375 C-0.14392578 17.00775391 -0.91285156 17.07800781 -1.70507812 17.15039062 C-6.17256939 17.62973518 -9.70154377 18.07246639 -13.1875 21.125 C-17.46724241 27.27646727 -17.75028135 33.12049289 -17.69140625 40.421875 C-17.70082748 41.49189758 -17.71024872 42.56192017 -17.71995544 43.66436768 C-17.74848681 47.06810836 -17.75168938 50.4711498 -17.75 53.875 C-17.75362743 57.26446592 -17.76339681 60.65342389 -17.79075623 64.04278564 C-17.80732075 66.14424346 -17.81060072 68.2458673 -17.79774475 70.34735107 C-17.88133077 82.17853278 -20.26961077 92.10614713 -28.1875 101.125 C-31.07343811 103.94211606 -34.05691311 106.58361654 -37.1875 109.125 C-36.69121094 109.4653125 -36.19492187 109.805625 -35.68359375 110.15625 C-26.08616417 117.00375194 -21.03850846 123.56557026 -18.1875 135.125 C-17.70393976 139.20501879 -17.67424842 143.21543781 -17.71875 147.3203125 C-17.71170044 148.43381073 -17.70465088 149.54730896 -17.6973877 150.69454956 C-17.67554856 154.21327294 -17.67831008 157.73122967 -17.6875 161.25 C-17.69960471 165.8988446 -17.68573189 170.54656559 -17.65625 175.1953125 C-17.66756958 176.24349152 -17.67888916 177.29167053 -17.69055176 178.37161255 C-17.64377741 185.25318523 -16.58476802 191.06005482 -13.1875 197.125 C-9.05629985 200.89391669 -4.77842296 201.95322396 0.625 202.8125 C7.7166762 204.0291762 7.7166762 204.0291762 8.8125 205.125 C8.91159302 207.45660055 8.94220504 209.79129942 8.9375 212.125 C8.94136719 214.043125 8.94136719 214.043125 8.9453125 216 C8.8125 219.125 8.8125 219.125 7.8125 220.125 C-2.1425196 221.32646788 -11.38690771 219.1734261 -19.64453125 213.41015625 C-21.61865594 211.73636222 -23.41860459 210.01240702 -25.1875 208.125 C-25.93 207.34125 -26.6725 206.5575 -27.4375 205.75 C-33.45091044 196.72988434 -34.30901196 187.8445603 -34.43359375 177.23828125 C-34.46654469 175.31054255 -34.49975612 173.38280828 -34.53320312 171.45507812 C-34.5804113 168.45161077 -34.62486 165.44815976 -34.66430664 162.44458008 C-33.87399742 142.46131351 -33.87399742 142.46131351 -41.34765625 124.80859375 C-46.23453907 120.33673282 -51.95565373 118.11274407 -58.1875 116.125 C-58.26825665 113.83390403 -58.32657731 111.54200733 -58.375 109.25 C-58.40980469 107.97382813 -58.44460937 106.69765625 -58.48046875 105.3828125 C-58.38378906 104.30773437 -58.28710938 103.23265625 -58.1875 102.125 C-55.32784355 100.21856237 -53.5733199 99.6202715 -50.3125 98.8125 C-44.54635598 97.14224868 -41.8066359 94.49587757 -38.4375 89.5625 C-36.51749332 85.81848696 -36.06354667 82.60917044 -36.0456543 78.42675781 C-36.03861984 77.49768616 -36.03158539 76.5686145 -36.02433777 75.61138916 C-36.02017349 74.61041199 -36.01600922 73.60943481 -36.01171875 72.578125 C-35.98849008 70.43098011 -35.96437159 68.2838447 -35.93945312 66.13671875 C-35.90460783 62.77353857 -35.87514406 59.41070048 -35.86157227 56.04736328 C-35.69270854 21.00164569 -35.69270854 21.00164569 -25.1875 9.125 C-17.96465519 2.09223005 -9.79442366 -0.05223693 0 0 Z " fill="#53979B" transform="translate(83.1875,33.875)"/>
<path d="M0 0 C0.144375 -0.804375 0.28875 -1.60875 0.4375 -2.4375 C1 -5 1 -5 2 -6 C3.68608966 -6.07205511 5.37500659 -6.08386068 7.0625 -6.0625 C7.98160156 -6.05347656 8.90070313 -6.04445312 9.84765625 -6.03515625 C10.55792969 -6.02355469 11.26820313 -6.01195312 12 -6 C12.06985574 1.78065152 12.12299031 9.56122801 12.15543652 17.3421154 C12.17101793 20.95605511 12.19211627 24.56977849 12.22631836 28.18359375 C12.25918345 31.67845884 12.27690942 35.17311732 12.28463173 38.66812515 C12.29278089 40.63435945 12.31615582 42.60051194 12.33988953 44.56661987 C12.3422834 57.46085264 9.70608174 65.89944287 0.875 75.25 C-7.78687078 80.52244308 -16.49988463 82.1636966 -26.3125 79.875 C-33.15141726 77.89407224 -40.29522163 74.51906693 -45 69 C-45 65.94389664 -43.72817579 64.64023266 -41.875 62.1875 C-39 60 -39 60 -35.5 60 C-32.16702928 60.95227735 -29.88361599 62.12954638 -27 64 C-20.93737582 65.92485044 -14.25915753 66.04889457 -8.5 63.375 C-4.96683698 60.01849513 -3.15819284 57.3482848 -2.82421875 52.390625 C-2.81374423 49.91863869 -2.86830017 47.46815239 -3 45 C-3.55429687 45.42152344 -4.10859375 45.84304687 -4.6796875 46.27734375 C-5.40414062 46.82519531 -6.12859375 47.37304688 -6.875 47.9375 C-7.59429687 48.48277344 -8.31359375 49.02804688 -9.0546875 49.58984375 C-14.10507784 53.25086968 -19.98295106 52.40305591 -26 52 C-28.77947732 51.32977143 -30.45915704 50.45191026 -33 49 C-34.010625 48.46375 -35.02125 47.9275 -36.0625 47.375 C-42.98117037 41.7811814 -47.16439948 33.58035412 -48.28125 24.78515625 C-48.64753571 16.1011325 -46.08251108 8.47169475 -40.61328125 1.75390625 C-28.59525243 -11.31169893 -13.63755425 -10.28185684 0 0 Z " fill="#53989B" transform="translate(492,141)"/>
<path d="M0 0 C1.08410156 0.00257812 2.16820312 0.00515625 3.28515625 0.0078125 C4.90744141 0.00394531 4.90744141 0.00394531 6.5625 0 C9.34765625 0.1328125 9.34765625 0.1328125 11.34765625 1.1328125 C11.67765625 10.7028125 12.00765625 20.2728125 12.34765625 30.1328125 C14.65765625 28.8128125 16.96765625 27.4928125 19.34765625 26.1328125 C27.56983639 23.66615846 34.79186062 25.58370909 42.34765625 29.1328125 C49.27474602 33.11753843 52.52921478 39.86917812 55.34765625 47.1328125 C57.30608692 56.59262612 56.723576 64.39388132 52.34765625 73.1328125 C48.24953041 79.24368876 42.56837787 84.42520147 35.47265625 86.74609375 C26.02255916 88.46587245 18.84031851 87.1155575 10.91015625 81.9453125 C10.06453125 81.3471875 9.21890625 80.7490625 8.34765625 80.1328125 C7.35765625 82.1128125 6.36765625 84.0928125 5.34765625 86.1328125 C2.37765625 86.1328125 -0.59234375 86.1328125 -3.65234375 86.1328125 C-3.67546658 75.06746392 -3.69325853 64.00212105 -3.70415592 52.93675327 C-3.70938488 47.79921684 -3.71648276 42.66169687 -3.7277832 37.52416992 C-3.73861162 32.5704984 -3.74462049 27.61684276 -3.74722099 22.66316032 C-3.74907532 20.76883634 -3.75269609 18.87451326 -3.75807381 16.980196 C-3.76528364 14.33646864 -3.76633472 11.69280779 -3.76586914 9.04907227 C-3.76946442 8.25785477 -3.77305969 7.46663727 -3.77676392 6.65144348 C-3.76436556 0.18849548 -3.76436556 0.18849548 0 0 Z " fill="#52969A" transform="translate(286.65234375,107.8671875)"/>
<path d="M0 0 C9.47591162 0.62137125 15.78689828 3.07934109 22.64453125 9.7734375 C29.40456509 17.49571039 31.45269194 25.15466551 30.8125 35.25 C29.59711789 44.58844228 25.14105744 51.37574773 17.8125 57.25 C14.89412385 58.8383621 11.91582987 60.0744005 8.8125 61.25 C7.8225 61.745 7.8225 61.745 6.8125 62.25 C-3.20488775 63.34004633 -10.86157558 62.03979588 -19.1875 56.25 C-25.76126149 50.68667201 -29.54716138 43.61696184 -30.56640625 35.07421875 C-30.90798808 25.69724653 -28.94826398 18.36068356 -23.0625 11 C-16.47324445 4.01397207 -9.43193918 0.73975994 0 0 Z " fill="#52979A" transform="translate(406.1875,132.75)"/>
<path d="M0 0 C2.48898292 1.83653109 4.520417 3.90863673 6.609375 6.1875 C7.17785156 5.63320312 7.74632812 5.07890625 8.33203125 4.5078125 C14.28943687 -1.08160646 18.34419655 -3.33859128 26.546875 -4.25 C31.48311722 -4.07813857 34.96857145 -2.05544254 38.609375 1.1875 C45.11265155 8.86164847 45.76562364 15.75312929 45.7421875 25.48828125 C45.74314423 26.36526169 45.74410095 27.24224213 45.74508667 28.14579773 C45.74576435 29.98888216 45.74393894 31.83196904 45.73974609 33.67504883 C45.73435973 36.5080289 45.73972145 39.34085274 45.74609375 42.17382812 C45.74543353 43.96614618 45.74415352 45.75846415 45.7421875 47.55078125 C45.74421173 48.40174881 45.74623596 49.25271637 45.74832153 50.12947083 C45.72434694 56.07252806 45.72434694 56.07252806 44.609375 57.1875 C42.61137928 57.28623816 40.60980342 57.31721799 38.609375 57.3125 C37.51625 57.31507813 36.423125 57.31765625 35.296875 57.3203125 C32.609375 57.1875 32.609375 57.1875 31.609375 56.1875 C31.48613761 53.36334161 31.42322623 50.5598799 31.3984375 47.734375 C31.37035875 45.98306373 31.34169422 44.23176178 31.3125 42.48046875 C31.27129067 39.71110391 31.23441706 36.941911 31.20800781 34.17236328 C31.18034868 31.50516471 31.13446462 28.83876472 31.0859375 26.171875 C31.08268463 25.34774109 31.07943176 24.52360718 31.07608032 23.67449951 C30.9774018 19.04506704 30.60784651 15.94866812 27.609375 12.1875 C24.41176331 10.58869415 21.08790547 10.81895681 17.609375 11.1875 C13.5867533 12.75185288 12.01788391 13.57473663 9.609375 17.1875 C9.37989716 20.14500897 9.26031793 23.01633157 9.23046875 25.9765625 C9.21347427 26.83559174 9.1964798 27.69462097 9.17897034 28.5796814 C9.12582494 31.3238796 9.08552567 34.06806231 9.046875 36.8125 C9.00299865 39.56400269 8.95635962 42.31538601 8.90406799 45.06674194 C8.87202195 46.77939915 8.8451599 48.4921623 8.82383728 50.20498657 C8.72112597 56.07574903 8.72112597 56.07574903 7.609375 57.1875 C5.61137928 57.28623816 3.60980342 57.31721799 1.609375 57.3125 C0.51625 57.31507813 -0.576875 57.31765625 -1.703125 57.3203125 C-4.390625 57.1875 -4.390625 57.1875 -5.390625 56.1875 C-5.51384869 53.44777582 -5.57676908 50.72939099 -5.6015625 47.98828125 C-5.62964699 46.28710002 -5.65831155 44.58592828 -5.6875 42.88476562 C-5.72866261 40.19670028 -5.76553831 37.50880917 -5.79199219 34.82055664 C-5.81970872 32.23025532 -5.86559827 29.64076662 -5.9140625 27.05078125 C-5.91731537 26.2536824 -5.92056824 25.45658356 -5.92391968 24.6353302 C-6.03007933 19.78370522 -6.71529148 16.39457866 -9.390625 12.1875 C-12.60327946 10.58117277 -15.90584312 10.70818056 -19.390625 11.1875 C-23.14274776 13.20252889 -25.02706595 14.64216142 -27.390625 18.1875 C-27.59574607 20.98959047 -27.69160174 23.70072086 -27.69921875 26.50390625 C-27.7243664 28.17122764 -27.7497646 29.83854527 -27.77539062 31.50585938 C-27.80420651 34.13500089 -27.82822512 36.76407736 -27.84692383 39.39331055 C-27.86849986 41.93050987 -27.9079181 44.46696285 -27.94921875 47.00390625 C-27.94933456 47.79350235 -27.94945038 48.58309845 -27.9495697 49.3966217 C-27.98999023 51.61157227 -27.98999023 51.61157227 -28.390625 55.1875 C-31.67324531 57.37591354 -32.70853398 57.43604665 -36.515625 57.375 C-37.40507813 57.36855469 -38.29453125 57.36210937 -39.2109375 57.35546875 C-41.390625 57.1875 -41.390625 57.1875 -42.390625 56.1875 C-42.48438553 54.37694975 -42.5080661 52.56272799 -42.50415039 50.74975586 C-42.50407486 49.58862778 -42.50399933 48.42749969 -42.50392151 47.23118591 C-42.49876022 45.967668 -42.49359894 44.70415009 -42.48828125 43.40234375 C-42.4868663 42.11638809 -42.48545135 40.83043243 -42.48399353 39.50550842 C-42.48016918 36.08106557 -42.47033962 32.65666491 -42.45928955 29.23223877 C-42.44907364 25.74011811 -42.44449553 22.24799066 -42.43945312 18.75585938 C-42.42871726 11.89972047 -42.41112114 5.0436166 -42.390625 -1.8125 C-38.430625 -1.8125 -34.470625 -1.8125 -30.390625 -1.8125 C-29.730625 0.1675 -29.070625 2.1475 -28.390625 4.1875 C-27.89433594 3.77757812 -27.39804687 3.36765625 -26.88671875 2.9453125 C-18.21530804 -3.93258062 -9.69145063 -6.0460426 0 0 Z " fill="#54989C" transform="translate(809.390625,136.8125)"/>
<path d="M0 0 C7.19241039 6.73548079 9.6948779 14.51893967 10.125 24.125 C10.1706278 32.93116445 6.76354642 39.55067902 0.8125 45.9375 C-6.64826435 52.97380074 -14.98691759 54.70044345 -25.01171875 54.453125 C-33.20816734 53.75696556 -38.18272013 50.1764746 -43.8125 44.375 C-50.33695044 36.53643763 -51.46657017 29.67945691 -51.2265625 19.56640625 C-50.35887254 11.07268567 -46.76492215 4.16059092 -40.17578125 -1.27734375 C-27.95544645 -10.42271361 -11.88240814 -9.65287314 0 0 Z " fill="#52969A" transform="translate(563.875,140.875)"/>
<path d="M0 0 C17.82 0 35.64 0 54 0 C54 15.51 54 31.02 54 47 C36.18 47 18.36 47 0 47 C0 31.49 0 15.98 0 0 Z " fill="#FDFDFD" transform="translate(151,49)"/>
<path d="M0 0 C1.093125 0.00257812 2.18625 0.00515625 3.3125 0.0078125 C4.405625 0.00523438 5.49875 0.00265625 6.625 0 C9.3125 0.1328125 9.3125 0.1328125 10.3125 1.1328125 C10.4008967 3.5084977 10.42780305 5.85489924 10.41015625 8.23046875 C10.4087413 8.93932724 10.40732635 9.64818573 10.40586853 10.37852478 C10.40025443 12.65082962 10.38769963 14.92303725 10.375 17.1953125 C10.36998681 18.73242046 10.36542359 20.26952995 10.36132812 21.80664062 C10.35028042 25.58206892 10.33300641 29.35742421 10.3125 33.1328125 C10.83779297 32.71636475 11.36308594 32.29991699 11.90429688 31.87084961 C12.60619141 31.3269458 13.30808594 30.78304199 14.03125 30.22265625 C14.72154297 29.6824585 15.41183594 29.14226074 16.12304688 28.58569336 C20.7811409 25.49466776 26.00354306 24.84950427 31.5 25.2578125 C38.40772654 26.84319236 42.25266828 30.60693044 46.3125 36.1328125 C49.00472376 41.0134146 48.56614458 46.04835431 48.5078125 51.46484375 C48.5049826 52.45659103 48.50215271 53.44833832 48.49923706 54.47013855 C48.48806804 57.62865409 48.46296927 60.78688307 48.4375 63.9453125 C48.42746597 66.09049069 48.41834086 68.23567333 48.41015625 70.38085938 C48.38813945 75.63160771 48.35469443 80.88218963 48.3125 86.1328125 C46.33340602 86.15967803 44.35421029 86.17914625 42.375 86.1953125 C41.27285156 86.20691406 40.17070313 86.21851563 39.03515625 86.23046875 C36.3125 86.1328125 36.3125 86.1328125 35.3125 85.1328125 C35.18930817 82.38140106 35.12636517 79.65122611 35.1015625 76.8984375 C35.07348322 75.19269891 35.04481869 73.48696988 35.015625 71.78125 C34.97442044 69.08431369 34.93754643 66.38755366 34.91113281 63.69042969 C34.88346716 61.09272037 34.83758287 58.49582993 34.7890625 55.8984375 C34.78580963 55.09617737 34.78255676 54.29391724 34.77920532 53.46734619 C34.67897133 48.88607371 34.2772782 45.84773635 31.3125 42.1328125 C27.5852104 39.64795277 24.62830629 39.60968446 20.3125 40.1328125 C16.87796178 41.36406205 14.93566792 42.34169334 12.67651367 45.2097168 C10.88956864 49.03915888 10.83459292 52.56890434 10.80078125 56.71484375 C10.78283005 57.52902267 10.76487885 58.3432016 10.74638367 59.18205261 C10.6924179 61.76975402 10.65842975 64.35727243 10.625 66.9453125 C10.59181472 68.70510351 10.55732394 70.46487042 10.52148438 72.22460938 C10.43669958 76.52721143 10.36982335 80.82976051 10.3125 85.1328125 C7.83474905 86.37168798 6.07596293 86.30022919 3.3125 86.3203125 C2.425625 86.33449219 1.53875 86.34867187 0.625 86.36328125 C-1.6875 86.1328125 -1.6875 86.1328125 -3.6875 84.1328125 C-3.8806967 81.48787896 -3.94979441 78.94809681 -3.93041992 76.30249023 C-3.93231827 75.49425812 -3.93421661 74.686026 -3.93617249 73.853302 C-3.93988576 71.17423896 -3.92916913 68.49544531 -3.91796875 65.81640625 C-3.91677725 63.96078015 -3.91632372 62.10515344 -3.9165802 60.24952698 C-3.91501443 56.35812614 -3.90671703 52.46681718 -3.89331055 48.57543945 C-3.87630876 43.57589718 -3.87249648 38.57645587 -3.87325573 33.57688808 C-3.87298443 29.74488859 -3.8675098 25.91291137 -3.86025429 22.08091927 C-3.85706207 20.2368391 -3.85509893 18.39275641 -3.85436058 16.54867363 C-3.85220351 13.97698498 -3.84347346 11.40540559 -3.83276367 8.83374023 C-3.83321686 8.0643663 -3.83367004 7.29499237 -3.83413696 6.50230408 C-3.79548891 0.18756777 -3.79548891 0.18756777 0 0 Z " fill="#52979B" transform="translate(704.6875,107.8671875)"/>
<path d="M0 0 C1.18831421 0.02030273 1.18831421 0.02030273 2.40063477 0.04101562 C4.34811264 0.07623753 6.29523882 0.13004121 8.2421875 0.1875 C8.3661765 6.32552799 8.45671144 12.46282032 8.5168457 18.60180664 C8.54192448 20.68819891 8.57599615 22.77450389 8.61938477 24.8605957 C8.68032859 27.86691877 8.70846393 30.8720762 8.73046875 33.87890625 C8.75627518 34.80522354 8.7820816 35.73154083 8.80867004 36.68592834 C8.81144992 43.1663484 7.52382242 46.29650287 3.2421875 51.1875 C-2.33783798 56.04201548 -8.77699964 56.65764116 -15.8828125 56.75 C-16.63457764 56.76474365 -17.38634277 56.7794873 -18.16088867 56.79467773 C-24.69423117 56.67521335 -29.85885449 54.6958963 -34.81640625 50.40625 C-35.27144531 49.8390625 -35.72648438 49.271875 -36.1953125 48.6875 C-36.66839844 48.1203125 -37.14148438 47.553125 -37.62890625 46.96875 C-40.32319181 42.71755895 -40.83905116 37.02991163 -39.7578125 32.1875 C-37.50224564 28.85792433 -34.67806062 26.30182524 -31.6953125 23.625 C-30.18124722 22.20953708 -28.66950728 20.79158255 -27.16015625 19.37109375 C-26.42023438 18.68128418 -25.6803125 17.99147461 -24.91796875 17.28076172 C-21.07278605 13.55465452 -17.3754205 9.59394685 -14.38305664 5.14233398 C-10.22107162 -0.28077652 -6.42689713 -0.2081154 0 0 Z " fill="#FEFEFE" transform="translate(225.7578125,181.8125)"/>
<path d="M0 0 C2.04119788 1.61594832 4.04072937 3.2856382 6 5 C6 5.66 6 6.32 6 7 C6.57524414 7.24927246 7.15048828 7.49854492 7.74316406 7.75537109 C10.32410072 9.17873923 12.04212237 10.81548786 14.109375 12.9140625 C14.86347656 13.67460937 15.61757812 14.43515625 16.39453125 15.21875 C17.17183594 16.0128125 17.94914062 16.806875 18.75 17.625 C19.54277344 18.42679688 20.33554688 19.22859375 21.15234375 20.0546875 C23.10614493 22.03202846 25.05512103 24.01388909 27 26 C21.75541414 32.36590304 15.97902678 38.13570612 10.125 43.9375 C9.14039081 44.91708237 8.156014 45.89689837 7.171875 46.87695312 C4.78351797 49.25360252 2.39284788 51.62787356 0 54 C-5.94855536 49.07372682 -11.38065322 43.7361235 -16.8125 38.25 C-17.67037109 37.38761719 -18.52824219 36.52523437 -19.41210938 35.63671875 C-20.98919098 34.05095141 -22.56523954 32.46415548 -24.13989258 30.87597656 C-25.42375448 29.58116164 -26.71064996 28.28935004 -28 27 C-25.50434749 24.47483195 -23.00267549 21.95570627 -20.5 19.4375 C-19.80390625 18.73302734 -19.1078125 18.02855469 -18.390625 17.30273438 C-14.29371695 13.18685916 -10.10688534 9.25017713 -5.6953125 5.47265625 C-3.69997138 3.73937606 -1.83007366 1.90632672 0 0 Z " fill="#FDFEFE" transform="translate(179,148)"/>
<path d="M0 0 C0 5.28 0 10.56 0 16 C4.89153471 15.9604321 4.89153471 15.9604321 9.78295898 15.90991211 C11.52221717 15.90275087 13.26145304 15.94975298 15 16 C16 17 16 17 16.09765625 19.50390625 C16.06510417 22.3359375 16.03255208 25.16796875 16 28 C10.72 28 5.44 28 0 28 C0.05985317 32.58475272 0.14684192 37.16619321 0.25 41.75 C0.26417969 43.05195313 0.27835938 44.35390625 0.29296875 45.6953125 C0.32519531 46.94570312 0.35742188 48.19609375 0.390625 49.484375 C0.41157227 50.63647461 0.43251953 51.78857422 0.45410156 52.97558594 C1.10695934 56.59258154 2.13305339 57.77251117 5 60 C8.83362685 61.210619 11.8416571 61 16 61 C16 65.29 16 69.58 16 74 C9.69130018 76.05998361 4.25295665 77.23503118 -2.0625 74.4375 C-7.42907555 71.47806805 -11.10853826 67.66048168 -13.06445312 61.82324219 C-14.00897664 57.9633157 -14.22933909 54.71800361 -14.1953125 50.75390625 C-14.1924826 50.09792953 -14.18965271 49.44195282 -14.18673706 48.76609802 C-14.17565984 46.69803591 -14.15058063 44.63042827 -14.125 42.5625 C-14.11495402 41.14909485 -14.10583102 39.73568283 -14.09765625 38.32226562 C-14.07576184 34.88136606 -14.04132051 31.44072748 -14 28 C-16.64 28 -19.28 28 -22 28 C-22.33 26.35 -22.66 24.7 -23 23 C-22.15115234 22.46826172 -22.15115234 22.46826172 -21.28515625 21.92578125 C-17.4843371 19.16701445 -15.30172695 17.34448277 -14.24609375 12.640625 C-14.02385256 9.40930868 -13.92210997 6.23730423 -14 3 C-8.59302137 0.76262953 -6.1035192 0 0 0 Z " fill="#51969A" transform="translate(674,119)"/>
<path d="M0 0 C1.79244141 0.01740234 1.79244141 0.01740234 3.62109375 0.03515625 C5.41740234 0.04869141 5.41740234 0.04869141 7.25 0.0625 C8.17683594 0.07410156 9.10367187 0.08570312 10.05859375 0.09765625 C10.08171658 11.16300483 10.09950853 22.2283477 10.11040592 33.29371548 C10.11563488 38.43125191 10.12273276 43.56877188 10.1340332 48.70629883 C10.14486162 53.65997035 10.15087049 58.61362599 10.15347099 63.56730843 C10.15532532 65.46163241 10.15894609 67.35595549 10.16432381 69.25027275 C10.17153364 71.89400011 10.17258472 74.53766096 10.17211914 77.18139648 C10.17571442 77.97261398 10.17930969 78.76383148 10.18301392 79.57902527 C10.17264591 84.98360409 10.17264591 84.98360409 9.05859375 86.09765625 C7.06059803 86.19639441 5.05902217 86.22737424 3.05859375 86.22265625 C1.96546875 86.22523438 0.87234375 86.2278125 -0.25390625 86.23046875 C-2.94140625 86.09765625 -2.94140625 86.09765625 -3.94140625 85.09765625 C-4.04182082 82.48615337 -4.07757682 79.9010726 -4.07080078 77.2890625 C-4.0725531 76.47122284 -4.07430542 75.65338318 -4.07611084 74.8107605 C-4.0805301 72.09387115 -4.07759111 69.37704632 -4.07421875 66.66015625 C-4.07489177 64.78068021 -4.07586178 62.90120426 -4.07711792 61.02172852 C-4.07859499 57.07730279 -4.07644004 53.13289967 -4.07177734 49.18847656 C-4.06608005 44.12053122 -4.06935901 39.05263883 -4.07534981 33.98469543 C-4.07895517 30.10208738 -4.07781695 26.21949197 -4.07522202 22.33688354 C-4.07455268 20.46768182 -4.07538141 18.59847897 -4.07770157 16.72927856 C-4.08022768 14.12157121 -4.07638809 11.51395084 -4.07080078 8.90625 C-4.07282501 8.12595428 -4.07484924 7.34565857 -4.07693481 6.54171753 C-4.05136989 0.13450763 -4.05136989 0.13450763 0 0 Z " fill="#5B9EA1" transform="translate(355.94140625,107.90234375)"/>
<path d="M0 0 C0.99 0.66 1.98 1.32 3 2 C2.68872484 3.58357459 2.37592711 5.16684993 2.0625 6.75 C1.88847656 7.63171875 1.71445312 8.5134375 1.53515625 9.421875 C1.07631512 11.63235053 0.56663926 13.81512068 0 16 C-0.66386719 16.10957031 -1.32773437 16.21914062 -2.01171875 16.33203125 C-8.96713055 17.51609877 -8.96713055 17.51609877 -15 21 C-17.54656144 24.70157468 -17.32980015 28.68247651 -17.37890625 33.01171875 C-17.39590073 33.78054886 -17.4128952 34.54937897 -17.43040466 35.34150696 C-17.48341665 37.79008857 -17.52379731 40.23865368 -17.5625 42.6875 C-17.60639777 45.14697462 -17.65302782 47.60631695 -17.70530701 50.06562805 C-17.73732185 51.59465071 -17.76419389 53.12379103 -17.78553772 54.65299988 C-17.88822527 59.88822527 -17.88822527 59.88822527 -19 61 C-20.99799572 61.09873816 -22.99957158 61.12971799 -25 61.125 C-26.093125 61.12757813 -27.18625 61.13015625 -28.3125 61.1328125 C-31 61 -31 61 -32 60 C-32.09376053 58.18944975 -32.1174411 56.37522799 -32.11352539 54.56225586 C-32.11344986 53.40112778 -32.11337433 52.23999969 -32.11329651 51.04368591 C-32.10813522 49.780168 -32.10297394 48.51665009 -32.09765625 47.21484375 C-32.0962413 45.92888809 -32.09482635 44.64293243 -32.09336853 43.31800842 C-32.08954418 39.89356557 -32.07971462 36.46916491 -32.06866455 33.04473877 C-32.05844864 29.55261811 -32.05387053 26.06049066 -32.04882812 22.56835938 C-32.03809227 15.71222222 -32.02101684 8.85611313 -32 2 C-23.70470183 1.88302752 -23.70470183 1.88302752 -20 4 C-18.86328125 6.078125 -18.86328125 6.078125 -18 8 C-17.55269531 7.59007812 -17.10539063 7.18015625 -16.64453125 6.7578125 C-11.32444598 2.01624397 -7.40510588 -0.64392225 0 0 Z " fill="#589B9F" transform="translate(615,133)"/>
<path d="M0 0 C4.10874135 3.28699308 7.7281087 7.52232867 8.48828125 12.86328125 C8.52405612 19.57703111 7.26326614 24.35488522 2.75 29.5625 C-1.61326173 33.28723562 -4.83966249 34.21145625 -10.5 34.0625 C-15.68673652 33.36158966 -18.8991858 30.87962545 -22.1875 26.8125 C-23.7456426 23.87600049 -24.50059596 22.02499239 -24.8125 18.75 C-24.93625 17.491875 -25.06 16.23375 -25.1875 14.9375 C-25.09282936 9.91995613 -23.07397378 6.47061329 -19.8125 2.75 C-13.5565701 -2.98913569 -7.63975221 -3.39544543 0 0 Z " fill="#FDFDFD" transform="translate(414.8125,148.25)"/>
<path d="M0 0 C4.8246309 2.06769896 7.21854164 4.95803915 9.3046875 9.65625 C11.00974834 15.4036461 11.14431336 21.5512754 8.3125 26.9375 C5.31581913 30.90607737 2.7427732 33.4190756 -2 35 C-6.54934863 35.52859098 -10.05499209 35.4361575 -14.25 33.5 C-18.63584147 29.51287139 -21.54447899 26.01832184 -22.44921875 20.0234375 C-22.67020613 13.88151238 -22.33232626 9.67435201 -18 5 C-17.175 4.05125 -16.35 3.1025 -15.5 2.125 C-11.02747502 -1.40053627 -5.36002656 -0.77308075 0 0 Z " fill="#FDFEFE" transform="translate(549,147)"/>
<path d="M0 0 C4.10941719 1.6942334 6.36768213 4.12291392 8.9375 7.6875 C11.04393877 14.25463264 10.75989144 20.87851727 8.0546875 27.2421875 C5.6849382 31.19176966 2.36149168 33.54616944 -2 35 C-7.85882434 35.57439454 -12.25767053 34.41252162 -17 31 C-19.99529608 28.13700499 -21.2406802 26.04266667 -21.49609375 21.96875 C-21.49741208 20.47903921 -21.47736573 18.98917786 -21.4375 17.5 C-21.44458984 16.75363281 -21.45167969 16.00726563 -21.45898438 15.23828125 C-21.40644431 10.67133706 -20.87089596 7.73354499 -18 4 C-12.74779788 -0.98285842 -6.86340947 -1.05803229 0 0 Z " fill="#FDFDFD" transform="translate(318,147)"/>
<path d="M0 0 C4.18410181 1.26273872 7.03868635 2.72858517 9.6953125 6.2421875 C12.50475532 12.18071035 11.84973842 19.53575858 9.75 25.625 C7.98303889 28.02301865 6.53799374 29.46182198 4 31 C3.401875 31.391875 2.80375 31.78375 2.1875 32.1875 C-2.32473155 33.86347172 -6.13116263 33.28461914 -10.625 31.8125 C-14.47647659 29.74411443 -18.16957211 27.51271407 -19.60546875 23.16796875 C-20.5653098 17.89359464 -21.26028859 12.47670637 -18.765625 7.57421875 C-13.41633569 0.33149288 -8.84570019 -0.97749211 0 0 Z " fill="#FDFDFD" transform="translate(479,147)"/>
<path d="M0 0 C4.29 0 8.58 0 13 0 C13.02255549 7.54498589 13.04091769 15.08995931 13.05181217 22.63497066 C13.05703989 26.13808885 13.0641355 29.64118285 13.07543945 33.14428711 C13.08834206 37.16780841 13.09322912 41.19130414 13.09765625 45.21484375 C13.10281754 46.47836166 13.10797882 47.74187958 13.11329651 49.04368591 C13.11337204 50.204814 13.11344757 51.36594208 13.11352539 52.56225586 C13.115746 53.59039902 13.11796661 54.61854218 13.12025452 55.67784119 C13 58 13 58 12 59 C10.16884117 59.09851171 8.33380067 59.12972629 6.5 59.125 C5.4996875 59.12757813 4.499375 59.13015625 3.46875 59.1328125 C1 59 1 59 0 58 C-0.09376053 56.18944975 -0.1174411 54.37522799 -0.11352539 52.56225586 C-0.11344986 51.40112778 -0.11337433 50.23999969 -0.11329651 49.04368591 C-0.10813522 47.780168 -0.10297394 46.51665009 -0.09765625 45.21484375 C-0.0962413 43.92888809 -0.09482635 42.64293243 -0.09336853 41.31800842 C-0.08954418 37.89356557 -0.07971462 34.46916491 -0.06866455 31.04473877 C-0.05844864 27.55261811 -0.05387053 24.06049066 -0.04882812 20.56835938 C-0.03809226 13.71222047 -0.02049614 6.8561166 0 0 Z " fill="#4C9195" transform="translate(627,135)"/>
<path d="M0 0 C4.29 0 8.58 0 13 0 C13 28.05 13 56.1 13 85 C8.50797614 85.89840477 6.31619303 85.90338924 2 85 C2 84.67 2 84.34 2 84 C4.97 84 7.94 84 11 84 C11 56.94 11 29.88 11 2 C7.7 2 4.4 2 1 2 C1 29.39 1 56.78 1 85 C0.34 85 -0.32 85 -1 85 C-1.02312297 74.06503529 -1.04091485 63.13007634 -1.05181217 52.1950922 C-1.0570411 47.11808982 -1.06413892 42.04110411 -1.07543945 36.96411133 C-1.08626799 32.06879448 -1.09227676 27.17349371 -1.09487724 22.27816582 C-1.09673155 20.40617049 -1.10035228 18.53417609 -1.10573006 16.66218758 C-1.11294004 14.04959301 -1.11399096 11.43706573 -1.11352539 8.82446289 C-1.11712067 8.04259613 -1.12071594 7.26072937 -1.12442017 6.45516968 C-1.11405216 1.11405216 -1.11405216 1.11405216 0 0 Z " fill="#4E9599" transform="translate(353,108)"/>
<path d="M0 0 C3 1.5625 3 1.5625 5 4 C5.52317779 8.18542235 5.47020379 11.4897104 3 15 C-0.7373856 17.4915904 -2.57331583 17.45793285 -7 17 C-9.875 15.4375 -9.875 15.4375 -12 13 C-13.1659741 8.99196403 -13.43240501 6.94717289 -11.6875 3.125 C-8.57198044 -0.79824685 -4.71159815 -0.63061543 0 0 Z " fill="#4E9397" transform="translate(637,107)"/>
<path d="M0 0 C7.65178571 -0.07142857 7.65178571 -0.07142857 11 1 C10.67 1.66 10.34 2.32 10 3 C7.36 2.67 4.72 2.34 2 2 C2 20.48 2 38.96 2 58 C5.3 58 8.6 58 12 58 C11.98428955 56.99098633 11.9685791 55.98197266 11.95239258 54.94238281 C11.8980232 51.19278979 11.86362468 47.4432315 11.83520508 43.69335938 C11.82013435 42.07155494 11.79967407 40.44979116 11.77368164 38.828125 C11.73722171 36.49468954 11.72025686 34.16179369 11.70703125 31.828125 C11.69154739 31.10506165 11.67606354 30.38199829 11.66011047 29.63702393 C11.65872036 25.4628548 12.03146649 23.02674004 15 20 C14.88206288 25.39363237 14.75783819 30.78706847 14.62768555 36.18041992 C14.5842718 38.01664247 14.54260161 39.85290708 14.50268555 41.68920898 C14.44513831 44.32288311 14.38140002 46.95634421 14.31640625 49.58984375 C14.29969376 50.41588608 14.28298126 51.24192841 14.26576233 52.09300232 C14.11387171 57.88612829 14.11387171 57.88612829 13 59 C11.00200428 59.09873816 9.00042842 59.12971799 7 59.125 C5.906875 59.12757813 4.81375 59.13015625 3.6875 59.1328125 C1 59 1 59 0 58 C-0.09376053 56.18944975 -0.1174411 54.37522799 -0.11352539 52.56225586 C-0.11344986 51.40112778 -0.11337433 50.23999969 -0.11329651 49.04368591 C-0.10813522 47.780168 -0.10297394 46.51665009 -0.09765625 45.21484375 C-0.0962413 43.92888809 -0.09482635 42.64293243 -0.09336853 41.31800842 C-0.08954418 37.89356557 -0.07971462 34.46916491 -0.06866455 31.04473877 C-0.05844864 27.55261811 -0.05387053 24.06049066 -0.04882812 20.56835938 C-0.03809227 13.71222222 -0.02101684 6.85611313 0 0 Z " fill="#428C8F" transform="translate(583,135)"/>
<path d="M0 0 C3.96 0 7.92 0 12 0 C12.66 1.98 13.32 3.96 14 6 C15.32 5.34 16.64 4.68 18 4 C17.34 5.32 16.68 6.64 16 8 C14.68 7.67 13.36 7.34 12 7 C12 5.35 12 3.7 12 2 C8.7 2 5.4 2 2 2 C2 20.48 2 38.96 2 58 C4.97 58 7.94 58 11 58 C11 58.33 11 58.66 11 59 C9.35425434 59.02688151 7.70838587 59.04634123 6.0625 59.0625 C5.14597656 59.07410156 4.22945312 59.08570313 3.28515625 59.09765625 C1 59 1 59 0 58 C-0.09376053 56.18944975 -0.1174411 54.37522799 -0.11352539 52.56225586 C-0.11344986 51.40112778 -0.11337433 50.23999969 -0.11329651 49.04368591 C-0.10813522 47.780168 -0.10297394 46.51665009 -0.09765625 45.21484375 C-0.0962413 43.92888809 -0.09482635 42.64293243 -0.09336853 41.31800842 C-0.08954418 37.89356557 -0.07971462 34.46916491 -0.06866455 31.04473877 C-0.05844864 27.55261811 -0.05387053 24.06049066 -0.04882812 20.56835938 C-0.03809226 13.71222047 -0.02049614 6.8561166 0 0 Z " fill="#458E91" transform="translate(767,135)"/>
<path d="M0 0 C0.33 0 0.66 0 1 0 C1 14.52 1 29.04 1 44 C-3.49202386 44.89840477 -5.68380697 44.90338924 -10 44 C-10 43.67 -10 43.34 -10 43 C-7.03 43 -4.06 43 -1 43 C-1.00523682 41.76846191 -1.01047363 40.53692383 -1.01586914 39.26806641 C-1.03393553 34.70964278 -1.04543804 30.15122233 -1.05493164 25.59277344 C-1.0599681 23.61783313 -1.06679751 21.64289657 -1.07543945 19.66796875 C-1.08753508 16.83332395 -1.0932351 13.99872834 -1.09765625 11.1640625 C-1.10281754 10.27756012 -1.10797882 9.39105774 -1.11329651 8.47769165 C-1.11387171 2.22774341 -1.11387171 2.22774341 0 0 Z " fill="#469094" transform="translate(365,149)"/>
<path d="M0 0 C0.66 0.33 1.32 0.66 2 1 C0.62714844 2.33804688 0.62714844 2.33804688 -0.7734375 3.703125 C-1.97422282 4.88514805 -3.17472909 6.06745461 -4.375 7.25 C-4.97828125 7.83652344 -5.5815625 8.42304688 -6.203125 9.02734375 C-7.07324219 9.88779297 -7.07324219 9.88779297 -7.9609375 10.765625 C-8.76217041 11.55114746 -8.76217041 11.55114746 -9.57958984 12.35253906 C-11.10334118 13.96995926 -11.10334118 13.96995926 -12.00244141 16.13964844 C-13 18 -13 18 -16 19 C-14.52770326 13.57738597 -10.79625199 10.45733731 -6.875 6.6875 C-6.21628906 6.04232422 -5.55757812 5.39714844 -4.87890625 4.73242188 C-3.25919856 3.14792522 -1.63289995 1.57087901 0 0 Z " fill="#377F84" transform="translate(153,153)"/>
<path d="M0 0 C0.66 0.66 1.32 1.32 2 2 C0.04310963 2.36205464 -1.91557668 2.71441421 -3.875 3.0625 C-4.96554687 3.25972656 -6.05609375 3.45695313 -7.1796875 3.66015625 C-10 4 -10 4 -12 3 C-7.81168576 0.60667758 -4.84749424 -0.55085162 0 0 Z " fill="#3E8387" transform="translate(615,133)"/>
<path d="M0 0 C0.66 0.99 1.32 1.98 2 3 C1.38125 3.165 0.7625 3.33 0.125 3.5 C-3.27756949 5.90181375 -3.22612026 9.00162134 -4 13 C-4.86443295 10.5653629 -5.12994709 9.36863937 -4.2578125 6.89453125 C-3.88398437 6.20746094 -3.51015625 5.52039062 -3.125 4.8125 C-2.57199219 3.77029297 -2.57199219 3.77029297 -2.0078125 2.70703125 C-1 1 -1 1 0 0 Z " fill="#388285" transform="translate(56,46)"/>
<path d="M0 0 C0.66 0.33 1.32 0.66 2 1 C-2.625 5.875 -2.625 5.875 -6 7 C-4.60667426 3.63279613 -3.0210714 2.0140476 0 0 Z " fill="#3B8286" transform="translate(63,39)"/>
</svg>
