<?xml version="1.0" encoding="UTF-8"?>
<svg version="1.1" xmlns="http://www.w3.org/2000/svg" width="320" height="270">
<path d="M0 0 C4.49753934 2.99835956 7.71354682 6.8458761 9.8125 11.875 C10.19140625 14.37573242 10.19140625 14.37573242 10.375 17.23046875 C10.448396 18.31255615 10.52179199 19.39464355 10.59741211 20.50952148 C10.70388062 22.26824585 10.70388062 22.26824585 10.8125 24.0625 C10.93540405 25.88599976 10.93540405 25.88599976 11.06079102 27.74633789 C11.47679564 34.03329225 11.84275315 40.32131629 12.16146851 46.61393738 C12.31419827 49.61473329 12.47572868 52.61503765 12.63696289 55.61538696 C12.74849165 57.78318203 12.84423409 59.95130931 12.93945312 62.11987305 C13.00971806 63.46406665 13.08064898 64.80822565 13.15234375 66.15234375 C13.20769287 67.33046631 13.26304199 68.50858887 13.32006836 69.72241211 C13.96459056 73.84869625 15.32609691 76.52899316 18.42797852 79.33789062 C19.00990967 79.73169922 19.59184082 80.12550781 20.19140625 80.53125 C20.8563208 80.98975342 21.52123535 81.44825684 22.20629883 81.9206543 C22.92197021 82.40058838 23.6376416 82.88052246 24.375 83.375 C25.91217947 84.43254633 27.44861306 85.49117746 28.984375 86.55078125 C29.77908203 87.09557129 30.57378906 87.64036133 31.39257812 88.20166016 C37.59373599 92.48966823 43.67448331 96.95061265 49.76904297 101.38818359 C51.07894307 102.34126503 52.39033552 103.29230079 53.70361328 104.24072266 C55.36991109 105.44525867 57.02895629 106.65980941 58.6875 107.875 C59.59242188 108.535 60.49734375 109.195 61.4296875 109.875 C66.24037498 113.91282293 68.6570491 117.67758156 69.8125 123.875 C69.91222247 129.59242153 68.49277423 133.3989908 64.8125 137.875 C60.67467894 141.71667258 56.94980747 143.9365049 51.5625 145.70703125 C50.87502686 145.9449791 50.18755371 146.18292694 49.47924805 146.42808533 C47.26090162 147.19320713 45.03696805 147.94038605 42.8125 148.6875 C41.28207274 149.21181909 39.75212651 149.73754424 38.22265625 150.26464844 C35.92760588 151.05537471 33.63228681 151.84516668 31.33520508 152.62997437 C23.87459777 155.18051331 16.47499565 157.88950623 9.0859375 160.63989258 C8.27382812 160.93919678 7.46171875 161.23850098 6.625 161.546875 C5.93019531 161.8056543 5.23539063 162.06443359 4.51953125 162.33105469 C2.8125 162.875 2.8125 162.875 0.8125 162.875 C-0.62615028 166.45650352 -2.03820927 170.04747953 -3.4375 173.64453125 C-8.08011735 185.54811008 -12.76057344 197.4349427 -17.625 209.25 C-18.02525391 210.23460205 -18.42550781 211.2192041 -18.83789062 212.23364258 C-24.40843765 225.65156856 -24.40843765 225.65156856 -31.2734375 229.11328125 C-36.56847725 231.22049094 -40.54928795 231.42267855 -45.875 229.25 C-57.13758675 224.10256547 -65.47514457 209.59086724 -72.70288086 199.828125 C-76.69381728 194.4629419 -80.88952797 189.31841379 -85.2265625 184.23046875 C-87.1875 181.875 -87.1875 181.875 -89.1875 178.875 C-92.00791232 178.45568845 -92.00791232 178.45568845 -95.36206055 178.58203125 C-96.66068527 178.59194092 -97.95931 178.60185059 -99.29728699 178.61206055 C-99.99380056 178.62441742 -100.69031414 178.63677429 -101.40793419 178.64950562 C-103.59022693 178.68778077 -105.77197272 178.70733937 -107.95454407 178.72192383 C-113.37942569 178.76206191 -118.80379313 178.83437662 -124.22833252 178.90612793 C-128.80460042 178.96550269 -133.38066933 179.0123654 -137.95722389 179.04281616 C-140.09950468 179.06216391 -142.24096602 179.09969772 -144.38298035 179.13793945 C-152.75979463 179.20109554 -157.73255346 178.5686886 -164.875 174.25 C-169.02053634 169.99242214 -171.1875 165.27344962 -171.1875 159.3125 C-169.06626042 152.02073893 -165.19080574 146.19055425 -160.5625 140.25 C-159.49085162 138.84867684 -158.42056239 137.44631335 -157.3515625 136.04296875 C-156.81950195 135.34606934 -156.28744141 134.64916992 -155.73925781 133.93115234 C-153.41353272 130.84945682 -151.16957329 127.71239832 -148.9375 124.5625 C-148.13024758 123.42445133 -147.32295671 122.28642992 -146.515625 121.1484375 C-146.12955078 120.60413086 -145.74347656 120.05982422 -145.34570312 119.49902344 C-142.85398378 116.0051539 -140.31514056 112.54536118 -137.78125 109.08203125 C-134.91813375 105.11717663 -133.86628292 103.38942956 -134.63525391 98.46240234 C-135.73548564 93.30755887 -137.25912996 88.26752673 -138.76785278 83.22052002 C-139.38365887 81.15850596 -139.99067629 79.09408069 -140.59545898 77.02880859 C-142.40996452 70.84064656 -144.24987564 64.66072922 -146.1171875 58.48828125 C-146.39667236 57.54879639 -146.67615723 56.60931152 -146.96411133 55.64135742 C-147.46902946 53.94433683 -147.98368961 52.25016769 -148.51049805 50.55981445 C-150.39130243 44.20122554 -151.25459752 38.07629256 -149.125 31.6875 C-145.97809899 27.11941789 -142.31192558 23.96081752 -137.375 21.4375 C-128.95491451 19.95160256 -120.59630346 22.64045706 -112.5625 25 C-111.48943604 25.30695801 -110.41637207 25.61391602 -109.31079102 25.93017578 C-103.69890815 27.54105847 -98.10019349 29.19523541 -92.50390625 30.859375 C-91.43285645 31.17632324 -90.36180664 31.49327148 -89.25830078 31.81982422 C-87.22216797 32.42428627 -85.18786174 33.03494798 -83.15576172 33.65283203 C-73.90805529 36.7907807 -73.90805529 36.7907807 -64.5625 35.86328125 C-63.77875 35.31027344 -62.995 34.75726563 -62.1875 34.1875 C-60.78951172 33.21683594 -60.78951172 33.21683594 -59.36328125 32.2265625 C-57.79126953 31.06253906 -57.79126953 31.06253906 -56.1875 29.875 C-55.58341309 29.42866211 -54.97932617 28.98232422 -54.35693359 28.52246094 C-50.97296947 26.01537898 -47.60863416 23.48353432 -44.25390625 20.9375 C-38.32575146 16.45087179 -32.25757143 12.16629592 -26.1875 7.875 C-25.22457031 7.18019531 -24.26164063 6.48539063 -23.26953125 5.76953125 C-22.39683594 5.14433594 -21.52414063 4.51914063 -20.625 3.875 C-19.88121094 3.33875 -19.13742188 2.8025 -18.37109375 2.25 C-12.41260995 -1.50203273 -6.63216473 -2.34076402 0 0 Z " fill="#3FB4B9" transform="translate(207.1875,10.125)"/>
<path d="M0 0 C1.80603027 1.31860352 1.80603027 1.31860352 3.72460938 3.06640625 C4.42755127 3.70400879 5.13049316 4.34161133 5.85473633 4.99853516 C11.41389191 10.18505586 16.8622289 15.4768493 22.27539062 20.81542969 C23.76577225 22.27898706 25.26327076 23.73533019 26.76757812 25.18457031 C28.95581629 27.29391023 31.12037946 29.42517603 33.28125 31.5625 C33.9561145 32.20437256 34.630979 32.84624512 35.32629395 33.50756836 C38.50959986 36.70484804 39.88361811 38.20301022 40.55273438 42.78515625 C39.82007805 47.04647186 38.44912575 48.45064619 35 51 C32.125 52.125 32.125 52.125 29 52 C24.27330612 49.6572039 21.13455859 46.17941145 18 42 C14.93400851 38.8626521 11.78421848 35.81566824 8.62187195 32.77577209 C6.38410552 30.61884424 4.16271452 28.4453474 1.94165039 26.27124023 C0.768506 25.12846534 -0.40993725 23.99110594 -1.59350586 22.85913086 C-3.31233705 21.21309723 -5.01101985 19.54840297 -6.70703125 17.87890625 C-7.50377007 17.128619 -7.50377007 17.128619 -8.31660461 16.36317444 C-10.83173494 13.85039726 -11.94786167 12.3714465 -12.44799805 8.80834961 C-11.87605813 5.22304993 -10.50389271 3.57753661 -8 1 C-4.98221063 -0.50889469 -3.37677363 -0.50026276 0 0 Z " fill="#42B2B6" transform="translate(236,182)"/>
<path d="M0 0 C2.61617384 1.70355506 4.05405328 3.11833584 5.6875 5.75 C0.06527778 3.96111111 0.06527778 3.96111111 -2.4375 2.5625 C-4.82448788 1.52813859 -5.88361606 1.96648905 -8.3125 2.75 C-9.3025 2.75 -10.2925 2.75 -11.3125 2.75 C-14.87842619 2.91417032 -14.87842619 2.91417032 -18.3125 3.75 C-19.55424796 5.6501177 -19.55424796 5.6501177 -20.3125 7.75 C-22.375 8.875 -22.375 8.875 -24.3125 9.75 C-24.6425 10.41 -24.9725 11.07 -25.3125 11.75 C-28.375 12.375 -28.375 12.375 -31.3125 12.75 C-23.30120615 3.93757677 -12.28177204 -4.63463096 0 0 Z " fill="#47A7A9" transform="translate(207.3125,10.25)"/>
<path d="M0 0 C6.24386338 3.77885119 12.22118775 7.79821065 18 12.25 C18.55131592 12.67394043 19.10263184 13.09788086 19.6706543 13.53466797 C22.26700005 15.55828449 24.74948225 17.59319629 27 20 C23.66666667 18.66666667 20.33333333 17.33333333 17 16 C17 15.34 17 14.68 17 14 C16.34 14 15.68 14 15 14 C15 15.32 15 16.64 15 18 C13.68 17.67 12.36 17.34 11 17 C11.66 16.34 12.32 15.68 13 15 C12.83333333 12.91666667 12.83333333 12.91666667 12 11 C11.34 10.67 10.68 10.34 10 10 C9.67 10.66 9.34 11.32 9 12 C8.67 11.34 8.34 10.68 8 10 C8.33 9.34 8.66 8.68 9 8 C8.443125 7.7525 7.88625 7.505 7.3125 7.25 C4.57589087 5.77075182 2.32349131 4.06532561 0 2 C0 1.34 0 0.68 0 0 Z " fill="#41ABAE" transform="translate(229,92)"/>
<path d="M0 0 C0.33 0.66 0.66 1.32 1 2 C0.360625 2.5775 -0.27875 3.155 -0.9375 3.75 C-3.0347071 6.03786229 -3.39514664 7.07654209 -4 10 C-4.99 10.495 -4.99 10.495 -6 11 C-6.20852314 17.40629424 -6.1583195 22.92972642 -4 29 C-4.66 29.33 -5.32 29.66 -6 30 C-8.66189479 22.41043094 -10.57948533 15.56295763 -7.875 7.75 C-5.5962797 4.40787689 -3.22003393 2.43291453 0 0 Z " fill="#45A8A9" transform="translate(66,34)"/>
<path d="M0 0 C2.16874252 0.50603992 3.99967627 0.99983813 6 2 C6 2.66 6 3.32 6 4 C5.34 4 4.68 4 4 4 C4.66 4.66 5.32 5.32 6 6 C5.70740515 8.00636471 5.37366113 10.00714063 5 12 C5.33 12.66 5.66 13.32 6 14 C6.04022391 16.3329866 6.04320247 18.66706666 6 21 C4.0326586 17.46410262 2.97745912 13.82060602 1.875 9.9375 C1.52179688 8.70902344 1.16859375 7.48054688 0.8046875 6.21484375 C0 3 0 3 0 0 Z M6 0 C6.66 0.66 7.32 1.32 8 2 C7.34 2 6.68 2 6 2 C6 1.34 6 0.68 6 0 Z " fill="#45ACB0" transform="translate(64,75)"/>
<path d="M0 0 C0.66 0.33 1.32 0.66 2 1 C-3.75 6 -3.75 6 -6 6 C-6.2475 6.5775 -6.495 7.155 -6.75 7.75 C-8.16683317 10.3002997 -9.87627537 12.01785701 -12 14 C-13.32 13.34 -14.64 12.68 -16 12 C-13.89674758 10.37380483 -11.79244271 8.74900468 -9.6875 7.125 C-9.09259766 6.66480469 -8.49769531 6.20460938 -7.88476562 5.73046875 C-5.29971995 3.73752851 -2.71700932 1.81133955 0 0 Z " fill="#44A7AB" transform="translate(174,23)"/>
<path d="M0 0 C0.99 0.33 1.98 0.66 3 1 C3 1.99 3 2.98 3 4 C3.66 4.33 4.32 4.66 5 5 C5 5.66 5 6.32 5 7 C5.66 7 6.32 7 7 7 C8.0625 8.8125 8.0625 8.8125 9 11 C8.67 11.99 8.34 12.98 8 14 C6.46690087 12.23977508 4.94881299 10.46646537 3.4375 8.6875 C2.16712891 7.20830078 2.16712891 7.20830078 0.87109375 5.69921875 C0.25363281 4.80847656 -0.36382812 3.91773438 -1 3 C-0.67 2.01 -0.34 1.02 0 0 Z " fill="#4BA7AA" transform="translate(140,213)"/>
<path d="M0 0 C0.33 0.66 0.66 1.32 1 2 C-1.51372894 7.12800703 -4.66868816 12.19999575 -9 16 C-9.99 16 -10.98 16 -12 16 C-8.04 10.72 -4.08 5.44 0 0 Z " fill="#46A6AA" transform="translate(53,142)"/>
<path d="M0 0 C0 0.66 0 1.32 0 2 C-5.67989374 4.49118146 -8.94474232 5.38766322 -15 4 C-15 3.34 -15 2.68 -15 2 C-13.68 1.67 -12.36 1.34 -11 1 C-11 1.66 -11 2.32 -11 3 C-9.02 3 -7.04 3 -5 3 C-5 2.34 -5 1.68 -5 1 C-2 0 -2 0 0 0 Z " fill="#4AA6AA" transform="translate(178,236)"/>
<path d="M0 0 C2.31 0.33 4.62 0.66 7 1 C3.71536341 3.18975773 0.79303725 3.99806563 -3 5 C-2.01 3.35 -1.02 1.7 0 0 Z " fill="#4CA9AD" transform="translate(228,162)"/>
<path d="M0 0 C3 1 3 1 4 3 C5.97522846 4.04808041 7.97481509 5.0520411 10 6 C10 6.66 10 7.32 10 8 C5.56983933 6.60766379 3.08449737 4.43701135 0 1 C0 0.67 0 0.34 0 0 Z " fill="#4EA4A9" transform="translate(152,231)"/>
<path d="M0 0 C2.66666667 1.33333333 5.33333333 2.66666667 8 4 C7.67 5.32 7.34 6.64 7 8 C5.83035398 6.8572081 4.66435444 5.71068285 3.5 4.5625 C2.8503125 3.92441406 2.200625 3.28632813 1.53125 2.62890625 C0 1 0 1 0 0 Z " fill="#4AA9AD" transform="translate(245,214)"/>
<path d="M0 0 C1.13643966 3.40931897 0.86747764 4.00335456 -0.4375 7.1875 C-0.72496094 7.90292969 -1.01242188 8.61835938 -1.30859375 9.35546875 C-1.53675781 9.89816406 -1.76492187 10.44085938 -2 11 C-2.66 10.34 -3.32 9.68 -4 9 C-3.52418802 7.68628013 -3.04424851 6.37405454 -2.5625 5.0625 C-2.29566406 4.33160156 -2.02882812 3.60070312 -1.75390625 2.84765625 C-1 1 -1 1 0 0 Z " fill="#44A7AD" transform="translate(205,175)"/>
<path d="M0 0 C-0.33 0.66 -0.66 1.32 -1 2 C-3.06640625 2.6328125 -3.06640625 2.6328125 -5.5625 3.125 C-6.80193359 3.37636719 -6.80193359 3.37636719 -8.06640625 3.6328125 C-8.70449219 3.75398437 -9.34257812 3.87515625 -10 4 C-10 3.34 -10 2.68 -10 2 C-6.49223216 0.39644899 -3.85645121 -0.22036864 0 0 Z " fill="#46AAA9" transform="translate(267,151)"/>
<path d="M0 0 C3.63 2.31 7.26 4.62 11 7 C7 8 7 8 5.078125 6.85546875 C4.47484375 6.30503906 3.8715625 5.75460938 3.25 5.1875 C2.63640625 4.64480469 2.0228125 4.10210937 1.390625 3.54296875 C0 2 0 2 0 0 Z " fill="#4AA1A3" transform="translate(229,92)"/>
<path d="M0 0 C0.99 0.33 1.98 0.66 3 1 C3 1.99 3 2.98 3 4 C3.66 4.33 4.32 4.66 5 5 C4.67 5.66 4.34 6.32 4 7 C2.35 5.68 0.7 4.36 -1 3 C-0.67 2.01 -0.34 1.02 0 0 Z " fill="#42ABAE" transform="translate(140,213)"/>
<path d="M0 0 C1 3 1 3 0.0625 5.1875 C-0.4634375 6.0846875 -0.4634375 6.0846875 -1 7 C-1.66 7 -2.32 7 -3 7 C-2.67 5.68 -2.34 4.36 -2 3 C-2.66 2.67 -3.32 2.34 -4 2 C-2.68 1.34 -1.36 0.68 0 0 Z " fill="#43AAAC" transform="translate(197,196)"/>
<path d="M0 0 C0.66 0 1.32 0 2 0 C0.70700306 2.88437779 -0.65941363 4.87219421 -3 7 C-3.66 6.67 -4.32 6.34 -5 6 C-4.67 5.01 -4.34 4.02 -4 3 C-3.01 2.67 -2.02 2.34 -1 2 C-0.67 1.34 -0.34 0.68 0 0 Z " fill="#4EA7A6" transform="translate(272,144)"/>
<path d="M0 0 C2.5 1.375 2.5 1.375 5 3 C5 3.66 5 4.32 5 5 C4.34 5 3.68 5 3 5 C2.67 6.32 2.34 7.64 2 9 C1.34 6.03 0.68 3.06 0 0 Z " fill="#46A8AD" transform="translate(70,96)"/>
</svg>
